<svg width="180" height="56" viewBox="0 0 180 56" fill="none" xmlns="http://www.w3.org/2000/svg">
<rect width="180" height="56" rx="12" fill="#0D143B"/>
<path d="M72.952 18.192C73.6027 18.3733 74.104 18.6987 74.456 19.168C74.8187 19.6373 75 20.224 75 20.928C75 21.8987 74.664 22.656 73.992 23.2C73.3307 23.7333 72.4027 24 71.208 24H67.128C66.872 24 66.6693 23.9307 66.52 23.792C66.3813 23.6427 66.312 23.4453 66.312 23.2V13.52C66.312 13.2747 66.3813 13.0827 66.52 12.944C66.6693 12.7947 66.872 12.72 67.128 12.72H71.032C72.1947 12.72 73.1013 12.9813 73.752 13.504C74.4133 14.016 74.744 14.736 74.744 15.664C74.744 16.2613 74.584 16.7787 74.264 17.216C73.9547 17.6533 73.5173 17.9787 72.952 18.192ZM67.928 17.6H70.776C72.3547 17.6 73.144 17.0027 73.144 15.808C73.144 15.2107 72.9467 14.768 72.552 14.48C72.168 14.192 71.576 14.048 70.776 14.048H67.928V17.6ZM71.032 22.672C71.8533 22.672 72.456 22.5227 72.84 22.224C73.224 21.9253 73.416 21.4613 73.416 20.832C73.416 20.192 73.2187 19.7173 72.824 19.408C72.44 19.088 71.8427 18.928 71.032 18.928H67.928V22.672H71.032ZM80.3078 24.112C79.5504 24.112 78.8838 23.9467 78.3078 23.616C77.7424 23.2853 77.2998 22.816 76.9798 22.208C76.6704 21.6 76.5158 20.896 76.5158 20.096C76.5158 19.2853 76.6758 18.5707 76.9958 17.952C77.3264 17.3333 77.7851 16.8533 78.3718 16.512C78.9584 16.1707 79.6304 16 80.3878 16C80.7931 16 81.1984 16.0587 81.6038 16.176C82.0198 16.2933 82.3878 16.4533 82.7078 16.656C83.0491 16.8907 83.2198 17.1627 83.2198 17.472C83.2198 17.6533 83.1718 17.808 83.0758 17.936C82.9798 18.0533 82.8571 18.112 82.7078 18.112C82.6118 18.112 82.5158 18.0907 82.4198 18.048C82.3238 17.9947 82.2011 17.92 82.0518 17.824C81.7851 17.6533 81.5344 17.5253 81.2998 17.44C81.0758 17.344 80.8038 17.296 80.4838 17.296C79.7584 17.296 79.1931 17.5413 78.7878 18.032C78.3931 18.5227 78.1957 19.2053 78.1957 20.08C78.1957 20.9547 78.3931 21.632 78.7878 22.112C79.1824 22.5813 79.7424 22.816 80.4678 22.816C80.7878 22.816 81.0704 22.768 81.3158 22.672C81.5611 22.576 81.8118 22.448 82.0678 22.288C82.1851 22.2133 82.3024 22.1493 82.4198 22.096C82.5371 22.0427 82.6438 22.016 82.7398 22.016C82.8891 22.016 83.0118 22.08 83.1078 22.208C83.2038 22.3253 83.2518 22.4747 83.2518 22.656C83.2518 22.8053 83.2091 22.944 83.1238 23.072C83.0491 23.1893 82.9158 23.312 82.7238 23.44C82.4038 23.6533 82.0304 23.8187 81.6038 23.936C81.1771 24.0533 80.7451 24.112 80.3078 24.112ZM90.8101 22.032C90.9595 22.032 91.0821 22.0907 91.1781 22.208C91.2741 22.3253 91.3221 22.4747 91.3221 22.656C91.3221 22.9653 91.1301 23.2267 90.7461 23.44C90.3728 23.6533 89.9621 23.8187 89.5141 23.936C89.0768 24.0533 88.6555 24.112 88.2501 24.112C87.0128 24.112 86.0368 23.7547 85.3221 23.04C84.6075 22.3147 84.2501 21.328 84.2501 20.08C84.2501 19.28 84.4048 18.5707 84.7141 17.952C85.0341 17.3333 85.4768 16.8533 86.0421 16.512C86.6181 16.1707 87.2688 16 87.9941 16C89.0395 16 89.8661 16.336 90.4741 17.008C91.0821 17.68 91.3861 18.5867 91.3861 19.728C91.3861 20.1547 91.1941 20.368 90.8101 20.368H85.8661C85.9728 22.0213 86.7675 22.848 88.2501 22.848C88.6448 22.848 88.9861 22.7947 89.2741 22.688C89.5621 22.5813 89.8661 22.4427 90.1861 22.272C90.2181 22.2507 90.3035 22.208 90.4421 22.144C90.5915 22.0693 90.7141 22.032 90.8101 22.032ZM88.0261 17.184C87.4075 17.184 86.9115 17.3813 86.5381 17.776C86.1648 18.1707 85.9408 18.7253 85.8661 19.44H89.9941C89.9621 18.7147 89.7755 18.16 89.4341 17.776C89.1035 17.3813 88.6341 17.184 88.0261 17.184ZM71.672 33.512C71.736 33.352 71.8267 33.2347 71.944 33.16C72.072 33.0853 72.2053 33.048 72.344 33.048C72.5467 33.048 72.7227 33.1173 72.872 33.256C73.032 33.3947 73.112 33.56 73.112 33.752C73.112 33.8587 73.0907 33.96 73.048 34.056L68.6 43.496C68.536 43.6453 68.44 43.7573 68.312 43.832C68.1947 43.9173 68.0667 43.96 67.928 43.96C67.736 43.96 67.56 43.896 67.4 43.768C67.2507 43.64 67.176 43.48 67.176 43.288C67.176 43.2027 67.2027 43.096 67.256 42.968L68.36 40.616L65.272 34.056C65.2293 33.9707 65.208 33.8747 65.208 33.768C65.208 33.5653 65.2933 33.3947 65.464 33.256C65.6347 33.1173 65.8267 33.048 66.04 33.048C66.36 33.048 66.5893 33.1973 66.728 33.496L69.208 39L71.672 33.512ZM77.6671 41.112C76.9098 41.112 76.2431 40.9467 75.6671 40.616C75.1018 40.2853 74.6591 39.816 74.3391 39.208C74.0298 38.6 73.8751 37.896 73.8751 37.096C73.8751 36.2853 74.0351 35.5707 74.3551 34.952C74.6858 34.3333 75.1445 33.8533 75.7311 33.512C76.3178 33.1707 76.9898 33 77.7471 33C78.1525 33 78.5578 33.0587 78.9631 33.176C79.3791 33.2933 79.7471 33.4533 80.0671 33.656C80.4085 33.8907 80.5791 34.1627 80.5791 34.472C80.5791 34.6533 80.5311 34.808 80.4351 34.936C80.3391 35.0533 80.2165 35.112 80.0671 35.112C79.9711 35.112 79.8751 35.0907 79.7791 35.048C79.6831 34.9947 79.5605 34.92 79.4111 34.824C79.1445 34.6533 78.8938 34.5253 78.6591 34.44C78.4351 34.344 78.1631 34.296 77.8431 34.296C77.1178 34.296 76.5525 34.5413 76.1471 35.032C75.7525 35.5227 75.5551 36.2053 75.5551 37.08C75.5551 37.9547 75.7525 38.632 76.1471 39.112C76.5418 39.5813 77.1018 39.816 77.8271 39.816C78.1471 39.816 78.4298 39.768 78.6751 39.672C78.9205 39.576 79.1711 39.448 79.4271 39.288C79.5445 39.2133 79.6618 39.1493 79.7791 39.096C79.8965 39.0427 80.0031 39.016 80.0991 39.016C80.2485 39.016 80.3711 39.08 80.4671 39.208C80.5631 39.3253 80.6111 39.4747 80.6111 39.656C80.6111 39.8053 80.5685 39.944 80.4831 40.072C80.4085 40.1893 80.2751 40.312 80.0831 40.44C79.7631 40.6533 79.3898 40.8187 78.9631 40.936C78.5365 41.0533 78.1045 41.112 77.6671 41.112ZM84.6335 41.08C84.3882 41.08 84.1908 41.0107 84.0415 40.872C83.8922 40.7333 83.8175 40.5467 83.8175 40.312V34.44H81.7375C81.5455 34.44 81.3908 34.3813 81.2735 34.264C81.1562 34.1467 81.0975 33.9973 81.0975 33.816C81.0975 33.6347 81.1562 33.4853 81.2735 33.368C81.3908 33.2507 81.5455 33.192 81.7375 33.192H87.5135C87.7162 33.192 87.8762 33.2507 87.9935 33.368C88.1108 33.4853 88.1695 33.6347 88.1695 33.816C88.1695 33.9973 88.1108 34.1467 87.9935 34.264C87.8762 34.3813 87.7162 34.44 87.5135 34.44H85.4335V40.312C85.4335 40.5467 85.3588 40.7333 85.2095 40.872C85.0708 41.0107 84.8788 41.08 84.6335 41.08ZM93.6245 33C94.2965 33 94.8938 33.1707 95.4165 33.512C95.9498 33.8533 96.3605 34.3333 96.6485 34.952C96.9472 35.5707 97.0965 36.2853 97.0965 37.096C97.0965 37.896 96.9525 38.6 96.6645 39.208C96.3765 39.816 95.9658 40.2853 95.4325 40.616C94.9098 40.9467 94.3072 41.112 93.6245 41.112C93.0378 41.112 92.5205 40.9893 92.0725 40.744C91.6245 40.488 91.2832 40.1253 91.0485 39.656V43.224C91.0485 43.448 90.9738 43.624 90.8245 43.752C90.6858 43.8907 90.4992 43.96 90.2645 43.96C90.0192 43.96 89.8165 43.8907 89.6565 43.752C89.5072 43.6133 89.4325 43.4267 89.4325 43.192V33.816C89.4325 33.5813 89.5072 33.3947 89.6565 33.256C89.8058 33.1067 90.0032 33.032 90.2485 33.032C90.4832 33.032 90.6752 33.1067 90.8245 33.256C90.9738 33.3947 91.0485 33.5813 91.0485 33.816V34.472C91.2832 34.0027 91.6245 33.64 92.0725 33.384C92.5205 33.128 93.0378 33 93.6245 33ZM93.2405 39.832C93.9445 39.832 94.4885 39.5973 94.8725 39.128C95.2565 38.648 95.4485 37.9707 95.4485 37.096C95.4485 36.2107 95.2512 35.5227 94.8565 35.032C94.4725 34.5413 93.9338 34.296 93.2405 34.296C92.5365 34.296 91.9925 34.536 91.6085 35.016C91.2352 35.496 91.0485 36.1787 91.0485 37.064C91.0485 37.9493 91.2352 38.632 91.6085 39.112C91.9925 39.592 92.5365 39.832 93.2405 39.832ZM102.278 41.112C101.51 41.112 100.832 40.9467 100.246 40.616C99.6696 40.2853 99.2216 39.816 98.9016 39.208C98.5923 38.5893 98.4376 37.8747 98.4376 37.064C98.4376 36.2427 98.5923 35.528 98.9016 34.92C99.2216 34.3013 99.6696 33.8267 100.246 33.496C100.832 33.1653 101.51 33 102.278 33C103.046 33 103.718 33.1653 104.294 33.496C104.88 33.8267 105.328 34.3013 105.638 34.92C105.958 35.528 106.118 36.2427 106.118 37.064C106.118 37.8747 105.958 38.5893 105.638 39.208C105.328 39.816 104.88 40.2853 104.294 40.616C103.718 40.9467 103.046 41.112 102.278 41.112ZM102.278 39.832C102.992 39.832 103.536 39.5973 103.91 39.128C104.294 38.6587 104.486 37.9707 104.486 37.064C104.486 36.168 104.294 35.4853 103.91 35.016C103.526 34.536 102.982 34.296 102.278 34.296C101.574 34.296 101.03 34.536 100.646 35.016C100.262 35.4853 100.07 36.168 100.07 37.064C100.07 37.9707 100.256 38.6587 100.63 39.128C101.014 39.5973 101.563 39.832 102.278 39.832ZM113.245 33.608C113.394 33.3947 113.538 33.2453 113.677 33.16C113.816 33.0747 114.002 33.032 114.237 33.032C114.493 33.032 114.696 33.1067 114.845 33.256C114.994 33.3947 115.069 33.5867 115.069 33.832V40.296C115.069 40.5307 115 40.7227 114.861 40.872C114.722 41.0107 114.536 41.08 114.301 41.08C114.077 41.08 113.89 41.0107 113.741 40.872C113.602 40.7227 113.533 40.5307 113.533 40.296V35.208L109.693 40.536C109.544 40.7493 109.394 40.8933 109.245 40.968C109.106 41.0427 108.93 41.08 108.717 41.08C108.472 41.08 108.269 41.0107 108.109 40.872C107.96 40.7227 107.885 40.5307 107.885 40.296V33.816C107.885 33.592 107.954 33.4053 108.093 33.256C108.242 33.1067 108.434 33.032 108.669 33.032C108.893 33.032 109.074 33.1067 109.213 33.256C109.362 33.4053 109.437 33.592 109.437 33.816V38.856L113.245 33.608ZM111.469 31.656C110.829 31.656 110.28 31.512 109.821 31.224C109.373 30.9253 109.042 30.5147 108.829 29.992C108.797 29.896 108.781 29.8107 108.781 29.736C108.781 29.576 108.834 29.448 108.941 29.352C109.048 29.2453 109.17 29.192 109.309 29.192C109.522 29.192 109.693 29.3093 109.821 29.544C109.992 29.8853 110.216 30.1467 110.493 30.328C110.781 30.5093 111.106 30.6 111.469 30.6C111.821 30.6 112.136 30.5093 112.413 30.328C112.69 30.1467 112.92 29.8853 113.101 29.544C113.218 29.32 113.394 29.208 113.629 29.208C113.768 29.208 113.885 29.256 113.981 29.352C114.088 29.448 114.141 29.576 114.141 29.736C114.141 29.8107 114.125 29.896 114.093 29.992C113.89 30.5147 113.56 30.9253 113.101 31.224C112.653 31.512 112.109 31.656 111.469 31.656ZM120.636 41.112C119.879 41.112 119.212 40.9467 118.636 40.616C118.071 40.2853 117.628 39.816 117.308 39.208C116.999 38.6 116.844 37.896 116.844 37.096C116.844 36.2853 117.004 35.5707 117.324 34.952C117.655 34.3333 118.113 33.8533 118.7 33.512C119.287 33.1707 119.959 33 120.716 33C121.121 33 121.527 33.0587 121.932 33.176C122.348 33.2933 122.716 33.4533 123.036 33.656C123.377 33.8907 123.548 34.1627 123.548 34.472C123.548 34.6533 123.5 34.808 123.404 34.936C123.308 35.0533 123.185 35.112 123.036 35.112C122.94 35.112 122.844 35.0907 122.748 35.048C122.652 34.9947 122.529 34.92 122.38 34.824C122.113 34.6533 121.863 34.5253 121.628 34.44C121.404 34.344 121.132 34.296 120.812 34.296C120.087 34.296 119.521 34.5413 119.116 35.032C118.721 35.5227 118.524 36.2053 118.524 37.08C118.524 37.9547 118.721 38.632 119.116 39.112C119.511 39.5813 120.071 39.816 120.796 39.816C121.116 39.816 121.399 39.768 121.644 39.672C121.889 39.576 122.14 39.448 122.396 39.288C122.513 39.2133 122.631 39.1493 122.748 39.096C122.865 39.0427 122.972 39.016 123.068 39.016C123.217 39.016 123.34 39.08 123.436 39.208C123.532 39.3253 123.58 39.4747 123.58 39.656C123.58 39.8053 123.537 39.944 123.452 40.072C123.377 40.1893 123.244 40.312 123.052 40.44C122.732 40.6533 122.359 40.8187 121.932 40.936C121.505 41.0533 121.073 41.112 120.636 41.112ZM127.602 41.08C127.357 41.08 127.16 41.0107 127.01 40.872C126.861 40.7333 126.786 40.5467 126.786 40.312V34.44H124.706C124.514 34.44 124.36 34.3813 124.242 34.264C124.125 34.1467 124.066 33.9973 124.066 33.816C124.066 33.6347 124.125 33.4853 124.242 33.368C124.36 33.2507 124.514 33.192 124.706 33.192H130.482C130.685 33.192 130.845 33.2507 130.962 33.368C131.08 33.4853 131.138 33.6347 131.138 33.816C131.138 33.9973 131.08 34.1467 130.962 34.264C130.845 34.3813 130.685 34.44 130.482 34.44H128.402V40.312C128.402 40.5467 128.328 40.7333 128.178 40.872C128.04 41.0107 127.848 41.08 127.602 41.08ZM133.201 41C132.945 41 132.743 40.9307 132.593 40.792C132.444 40.6533 132.369 40.4613 132.369 40.216V34.024C132.369 33.7787 132.439 33.5813 132.577 33.432C132.727 33.272 132.919 33.192 133.153 33.192H136.017C136.881 33.192 137.553 33.3627 138.033 33.704C138.524 34.0453 138.769 34.5413 138.769 35.192C138.769 35.576 138.657 35.9333 138.433 36.264C138.209 36.5947 137.868 36.8347 137.409 36.984C137.9 37.08 138.284 37.288 138.561 37.608C138.839 37.9173 138.977 38.3173 138.977 38.808C138.977 39.192 138.871 39.5547 138.657 39.896C138.444 40.2267 138.119 40.4933 137.681 40.696C137.244 40.8987 136.705 41 136.065 41H133.201ZM135.809 36.488C136.225 36.488 136.556 36.3867 136.801 36.184C137.047 35.9813 137.169 35.704 137.169 35.352C137.169 34.6693 136.7 34.328 135.761 34.328H133.985V36.488H135.809ZM135.841 39.864C136.844 39.864 137.345 39.4853 137.345 38.728C137.345 38.3333 137.207 38.04 136.929 37.848C136.652 37.656 136.268 37.56 135.777 37.56H133.985V39.864H135.841ZM144.041 33C145.075 33 145.843 33.2613 146.345 33.784C146.857 34.3067 147.113 35.1013 147.113 36.168V40.312C147.113 40.5573 147.043 40.7493 146.905 40.888C146.766 41.016 146.574 41.08 146.329 41.08C146.094 41.08 145.907 41.0107 145.769 40.872C145.63 40.7333 145.561 40.5467 145.561 40.312V39.72C145.358 40.168 145.054 40.5147 144.649 40.76C144.254 40.9947 143.79 41.112 143.257 41.112C142.745 41.112 142.275 41.0107 141.849 40.808C141.433 40.5947 141.102 40.3067 140.857 39.944C140.611 39.5813 140.489 39.1707 140.489 38.712C140.478 38.136 140.622 37.688 140.921 37.368C141.219 37.0373 141.705 36.8027 142.377 36.664C143.049 36.5147 143.982 36.44 145.177 36.44H145.545V35.976C145.545 35.3787 145.422 34.9467 145.177 34.68C144.931 34.4133 144.537 34.28 143.993 34.28C143.619 34.28 143.267 34.328 142.937 34.424C142.606 34.52 142.243 34.6587 141.849 34.84C141.561 35 141.358 35.08 141.241 35.08C141.081 35.08 140.947 35.0213 140.841 34.904C140.745 34.7867 140.697 34.6373 140.697 34.456C140.697 34.296 140.739 34.1573 140.825 34.04C140.921 33.912 141.07 33.7893 141.273 33.672C141.646 33.4693 142.083 33.3093 142.585 33.192C143.086 33.064 143.571 33 144.041 33ZM143.545 39.912C144.131 39.912 144.611 39.7147 144.985 39.32C145.358 38.9147 145.545 38.3973 145.545 37.768V37.352H145.257C144.425 37.352 143.785 37.3893 143.337 37.464C142.889 37.5387 142.569 37.6667 142.377 37.848C142.185 38.0187 142.089 38.2693 142.089 38.6C142.089 38.984 142.227 39.2987 142.505 39.544C142.782 39.7893 143.129 39.912 143.545 39.912Z" fill="#F7F9FF"/>
<rect x="26" y="13" width="29" height="18" rx="3" fill="#F7F9FF"/>
<rect x="31" y="33" width="19" height="2" rx="1" fill="#F7F9FF"/>
<rect x="38" y="39" width="20" height="9" rx="3" transform="rotate(-180 38 39)" fill="#F7F9FF" stroke="#0D143B" stroke-width="2"/>
<ellipse cx="22.5" cy="34.5" rx="1.5" ry="1.5" transform="rotate(90 22.5 34.5)" fill="#0D143B"/>
</svg>
