<svg width="180" height="56" viewBox="0 0 180 56" fill="none" xmlns="http://www.w3.org/2000/svg">
<rect width="180" height="56" rx="12" fill="#0D143B"/>
<path d="M42.2458 27.7388C42.2698 25.8726 43.2482 24.1489 44.838 23.1715C43.8305 21.7326 42.2035 20.853 40.4477 20.798C38.6006 20.6042 36.8098 21.9033 35.8685 21.9033C34.909 21.9033 33.4598 20.8173 31.8992 20.8494C29.8458 20.9157 27.978 22.0549 26.979 23.8501C24.8516 27.5333 26.4384 32.9465 28.4763 35.9237C29.4959 37.3816 30.6875 39.0101 32.2467 38.9524C33.7725 38.8891 34.3423 37.9794 36.184 37.9794C38.0087 37.9794 38.5433 38.9524 40.1341 38.9157C41.7714 38.8891 42.8029 37.4513 43.7867 35.9796C44.5193 34.9408 45.083 33.7927 45.457 32.5778C43.5124 31.7554 42.2481 29.85 42.2458 27.7388Z" fill="#F7F9FF"/>
<path d="M39.2411 18.8397C40.1338 17.7681 40.5736 16.3907 40.4671 15C39.1033 15.1432 37.8435 15.7951 36.9387 16.8256C36.0453 17.8423 35.5928 19.1725 35.6807 20.5231C37.0628 20.5373 38.375 19.9169 39.2411 18.8397Z" fill="#F7F9FF"/>
<path fill-rule="evenodd" clip-rule="evenodd" d="M56.3259 35.2616H61.5326L62.7819 38.9537H65.0249L60.0932 25.2939H57.8019L52.8701 38.9537H55.0755L56.3259 35.2616ZM60.9923 33.5579H56.8651L58.9008 27.5659H58.9578L60.9923 33.5579Z" fill="#F7F9FF"/>
<path fill-rule="evenodd" clip-rule="evenodd" d="M71.5199 39.058C74.0196 39.058 75.6761 37.0696 75.6761 33.9748C75.6761 30.8886 74.0099 28.8905 71.4823 28.8905C70.1817 28.8486 68.9633 29.525 68.3112 30.6512H68.2736V28.9947H66.2949V42.2484H68.3391V37.3156H68.3864C69.0108 38.4488 70.2279 39.1256 71.5199 39.058ZM70.9431 30.6329C72.5329 30.6329 73.5749 31.9585 73.5749 33.9748C73.5749 36.0094 72.5329 37.3253 70.9431 37.3253C69.3812 37.3253 68.3306 35.9814 68.3306 33.9748C68.3306 31.9864 69.3812 30.6329 70.9431 30.6329Z" fill="#F7F9FF"/>
<path fill-rule="evenodd" clip-rule="evenodd" d="M82.481 39.058C84.9807 39.058 86.6371 37.0696 86.6371 33.9748C86.6371 30.8886 84.971 28.8905 82.4433 28.8905C81.1427 28.8486 79.9243 29.525 79.2722 30.6512H79.2346V28.9947H77.2559V42.2484H79.3002V37.3156H79.3475C79.9718 38.4488 81.1889 39.1256 82.481 39.058ZM81.9041 30.6329C83.4939 30.6329 84.5359 31.9585 84.5359 33.9748C84.5359 36.0094 83.4939 37.3253 81.9041 37.3253C80.3422 37.3253 79.2916 35.9814 79.2916 33.9748C79.2916 31.9864 80.3422 30.6329 81.9041 30.6329Z" fill="#F7F9FF"/>
<path d="M93.8817 35.147C94.0332 36.5016 95.3491 37.391 97.1474 37.391C98.8704 37.391 100.11 36.5016 100.11 35.2802C100.11 34.2199 99.3624 33.5851 97.5921 33.15L95.8218 32.7236C93.3135 32.1177 92.149 30.9446 92.149 29.0411C92.149 26.6843 94.2029 25.0654 97.1194 25.0654C100.006 25.0654 101.985 26.6843 102.051 29.0411H99.9876C99.8641 27.6779 98.7372 26.8551 97.0904 26.8551C95.4436 26.8551 94.3168 27.6876 94.3168 28.8993C94.3168 29.8651 95.0365 30.4333 96.7972 30.8683L98.3021 31.2379C101.105 31.9007 102.269 33.0265 102.269 35.0245C102.269 37.5801 100.234 39.1806 96.9959 39.1806C93.9666 39.1806 91.9213 37.6177 91.7891 35.1469L93.8817 35.147Z" fill="#F7F9FF"/>
<path d="M106.681 26.6377V28.9945H108.575V30.6134H106.681V36.1037C106.681 36.9566 107.06 37.3541 107.892 37.3541C108.117 37.3502 108.342 37.3344 108.565 37.3068V38.916C108.191 38.9859 107.81 39.0176 107.429 39.0105C105.413 39.0105 104.627 38.2532 104.627 36.3217V30.6134H103.179V28.9945H104.627V26.6377H106.681Z" fill="#F7F9FF"/>
<path fill-rule="evenodd" clip-rule="evenodd" d="M114.395 28.8721C111.517 28.8721 109.672 30.8411 109.672 33.9746C109.672 37.1167 111.499 39.0771 114.395 39.0771C117.292 39.0771 119.119 37.1167 119.119 33.9746C119.119 30.8411 117.282 28.8721 114.395 28.8721ZM114.395 30.5564C116.051 30.5564 117.036 31.8251 117.036 33.9746C117.036 36.1327 116.051 37.3917 114.395 37.3917C112.739 37.3917 111.755 36.1327 111.755 33.9746C111.755 31.8348 112.739 30.5564 114.395 30.5564Z" fill="#F7F9FF"/>
<path d="M120.805 28.9946H122.754V30.6897H122.802C123.074 29.5985 124.073 28.8475 125.197 28.8904C125.433 28.8896 125.668 28.9152 125.898 28.9667V30.8788C125.6 30.7879 125.29 30.7462 124.979 30.7553C124.378 30.7309 123.796 30.9704 123.387 31.4109C122.977 31.8514 122.781 32.4489 122.849 33.0466V38.9537H120.805V28.9946Z" fill="#F7F9FF"/>
<path fill-rule="evenodd" clip-rule="evenodd" d="M131.034 39.0771C133.287 39.0771 135.048 37.8364 135.323 36.0285H133.382C133.009 36.9526 132.074 37.5222 131.082 37.4293C130.338 37.4567 129.618 37.1632 129.106 36.6234C128.593 36.0837 128.337 35.3498 128.403 34.6084V34.4849H135.437V33.7845C135.437 30.7648 133.704 28.8721 130.949 28.8721C128.147 28.8721 126.339 30.898 126.339 34.0219C126.339 37.136 128.137 39.0771 131.034 39.0771ZM133.391 33.0561L128.412 33.0562C128.411 32.3838 128.678 31.7385 129.154 31.2639C129.63 30.7892 130.276 30.5245 130.949 30.5285C131.616 30.5142 132.258 30.7788 132.722 31.2586C133.186 31.7384 133.428 32.3899 133.391 33.0561Z" fill="#F7F9FF"/>
<path opacity="0.4" d="M59.504 8.828C59.632 8.596 59.808 8.48 60.032 8.48C60.184 8.48 60.316 8.532 60.428 8.636C60.548 8.74 60.608 8.872 60.608 9.032C60.608 9.136 60.58 9.24 60.524 9.344L56.768 16.7C56.64 16.94 56.46 17.06 56.228 17.06C56.076 17.06 55.94 17.008 55.82 16.904C55.708 16.792 55.652 16.656 55.652 16.496C55.652 16.408 55.676 16.312 55.724 16.208L56.624 14.456L53.48 9.368C53.408 9.248 53.372 9.132 53.372 9.02C53.372 8.868 53.428 8.74 53.54 8.636C53.66 8.524 53.792 8.468 53.936 8.468C54.144 8.468 54.312 8.572 54.44 8.78L57.224 13.292L59.504 8.828ZM63.5902 17.084C63.0222 17.084 62.5222 16.96 62.0902 16.712C61.6662 16.464 61.3342 16.112 61.0942 15.656C60.8622 15.2 60.7462 14.672 60.7462 14.072C60.7462 13.464 60.8662 12.928 61.1062 12.464C61.3542 12 61.6982 11.64 62.1382 11.384C62.5782 11.128 63.0822 11 63.6502 11C63.9542 11 64.2582 11.044 64.5622 11.132C64.8742 11.22 65.1502 11.34 65.3902 11.492C65.6462 11.668 65.7742 11.872 65.7742 12.104C65.7742 12.24 65.7382 12.356 65.6662 12.452C65.5942 12.54 65.5022 12.584 65.3902 12.584C65.3182 12.584 65.2462 12.568 65.1742 12.536C65.1022 12.496 65.0102 12.44 64.8982 12.368C64.6982 12.24 64.5102 12.144 64.3342 12.08C64.1662 12.008 63.9622 11.972 63.7222 11.972C63.1782 11.972 62.7542 12.156 62.4502 12.524C62.1542 12.892 62.0062 13.404 62.0062 14.06C62.0062 14.716 62.1542 15.224 62.4502 15.584C62.7462 15.936 63.1662 16.112 63.7102 16.112C63.9502 16.112 64.1622 16.076 64.3462 16.004C64.5302 15.932 64.7182 15.836 64.9102 15.716C64.9982 15.66 65.0862 15.612 65.1742 15.572C65.2622 15.532 65.3422 15.512 65.4142 15.512C65.5262 15.512 65.6182 15.56 65.6902 15.656C65.7622 15.744 65.7982 15.856 65.7982 15.992C65.7982 16.104 65.7662 16.208 65.7022 16.304C65.6462 16.392 65.5462 16.484 65.4022 16.58C65.1622 16.74 64.8822 16.864 64.5622 16.952C64.2422 17.04 63.9182 17.084 63.5902 17.084ZM68.815 17.06C68.631 17.06 68.483 17.008 68.371 16.904C68.259 16.8 68.203 16.66 68.203 16.484V12.08H66.643C66.499 12.08 66.383 12.036 66.295 11.948C66.207 11.86 66.163 11.748 66.163 11.612C66.163 11.476 66.207 11.364 66.295 11.276C66.383 11.188 66.499 11.144 66.643 11.144H70.975C71.127 11.144 71.247 11.188 71.335 11.276C71.423 11.364 71.467 11.476 71.467 11.612C71.467 11.748 71.423 11.86 71.335 11.948C71.247 12.036 71.127 12.08 70.975 12.08H69.415V16.484C69.415 16.66 69.359 16.8 69.247 16.904C69.143 17.008 68.999 17.06 68.815 17.06ZM74.8156 11C75.5916 11 76.1676 11.196 76.5436 11.588C76.9276 11.98 77.1196 12.576 77.1196 13.376V16.484C77.1196 16.668 77.0676 16.812 76.9636 16.916C76.8596 17.012 76.7156 17.06 76.5316 17.06C76.3556 17.06 76.2156 17.008 76.1116 16.904C76.0076 16.8 75.9556 16.66 75.9556 16.484V16.04C75.8036 16.376 75.5756 16.636 75.2716 16.82C74.9756 16.996 74.6276 17.084 74.2276 17.084C73.8436 17.084 73.4916 17.008 73.1716 16.856C72.8596 16.696 72.6116 16.48 72.4276 16.208C72.2436 15.936 72.1516 15.628 72.1516 15.284C72.1436 14.852 72.2516 14.516 72.4756 14.276C72.6996 14.028 73.0636 13.852 73.5676 13.748C74.0716 13.636 74.7716 13.58 75.6676 13.58H75.9436V13.232C75.9436 12.784 75.8516 12.46 75.6676 12.26C75.4836 12.06 75.1876 11.96 74.7796 11.96C74.4996 11.96 74.2356 11.996 73.9876 12.068C73.7396 12.14 73.4676 12.244 73.1716 12.38C72.9556 12.5 72.8036 12.56 72.7156 12.56C72.5956 12.56 72.4956 12.516 72.4156 12.428C72.3436 12.34 72.3076 12.228 72.3076 12.092C72.3076 11.972 72.3396 11.868 72.4036 11.78C72.4756 11.684 72.5876 11.592 72.7396 11.504C73.0196 11.352 73.3476 11.232 73.7236 11.144C74.0996 11.048 74.4636 11 74.8156 11ZM74.4436 16.184C74.8836 16.184 75.2436 16.036 75.5236 15.74C75.8036 15.436 75.9436 15.048 75.9436 14.576V14.264H75.7276C75.1036 14.264 74.6236 14.292 74.2876 14.348C73.9516 14.404 73.7116 14.5 73.5676 14.636C73.4236 14.764 73.3516 14.952 73.3516 15.2C73.3516 15.488 73.4556 15.724 73.6636 15.908C73.8716 16.092 74.1316 16.184 74.4436 16.184ZM79.3655 17.06C79.1815 17.06 79.0335 17.008 78.9215 16.904C78.8095 16.8 78.7535 16.66 78.7535 16.484V11.6C78.7535 11.424 78.8095 11.284 78.9215 11.18C79.0335 11.076 79.1815 11.024 79.3655 11.024C79.5495 11.024 79.6935 11.076 79.7975 11.18C79.9095 11.284 79.9655 11.424 79.9655 11.6V13.52H82.8455V11.6C82.8455 11.424 82.9015 11.284 83.0135 11.18C83.1255 11.076 83.2735 11.024 83.4575 11.024C83.6415 11.024 83.7855 11.076 83.8895 11.18C84.0015 11.284 84.0575 11.424 84.0575 11.6L84.0695 16.448C84.0695 16.632 84.0135 16.78 83.9015 16.892C83.7895 17.004 83.6415 17.06 83.4575 17.06C83.2735 17.06 83.1255 17.004 83.0135 16.892C82.9015 16.78 82.8455 16.632 82.8455 16.448V14.48H79.9655V16.484C79.9655 16.66 79.9095 16.8 79.7975 16.904C79.6935 17.008 79.5495 17.06 79.3655 17.06ZM88.2707 17.084C87.6947 17.084 87.1867 16.96 86.7467 16.712C86.3147 16.464 85.9787 16.112 85.7387 15.656C85.5067 15.192 85.3907 14.656 85.3907 14.048C85.3907 13.432 85.5067 12.896 85.7387 12.44C85.9787 11.976 86.3147 11.62 86.7467 11.372C87.1867 11.124 87.6947 11 88.2707 11C88.8467 11 89.3507 11.124 89.7827 11.372C90.2227 11.62 90.5587 11.976 90.7907 12.44C91.0307 12.896 91.1507 13.432 91.1507 14.048C91.1507 14.656 91.0307 15.192 90.7907 15.656C90.5587 16.112 90.2227 16.464 89.7827 16.712C89.3507 16.96 88.8467 17.084 88.2707 17.084ZM88.2707 16.124C88.8067 16.124 89.2147 15.948 89.4947 15.596C89.7827 15.244 89.9267 14.728 89.9267 14.048C89.9267 13.376 89.7827 12.864 89.4947 12.512C89.2067 12.152 88.7987 11.972 88.2707 11.972C87.7427 11.972 87.3347 12.152 87.0467 12.512C86.7587 12.864 86.6147 13.376 86.6147 14.048C86.6147 14.728 86.7547 15.244 87.0347 15.596C87.3227 15.948 87.7347 16.124 88.2707 16.124ZM93.1002 17C92.9082 17 92.7562 16.948 92.6442 16.844C92.5322 16.74 92.4762 16.596 92.4762 16.412V11.768C92.4762 11.584 92.5282 11.436 92.6322 11.324C92.7442 11.204 92.8882 11.144 93.0642 11.144H95.2122C95.8602 11.144 96.3642 11.272 96.7242 11.528C97.0922 11.784 97.2762 12.156 97.2762 12.644C97.2762 12.932 97.1922 13.2 97.0242 13.448C96.8562 13.696 96.6002 13.876 96.2562 13.988C96.6242 14.06 96.9122 14.216 97.1202 14.456C97.3282 14.688 97.4322 14.988 97.4322 15.356C97.4322 15.644 97.3522 15.916 97.1922 16.172C97.0322 16.42 96.7882 16.62 96.4602 16.772C96.1322 16.924 95.7282 17 95.2482 17H93.1002ZM95.0562 13.616C95.3682 13.616 95.6162 13.54 95.8002 13.388C95.9842 13.236 96.0762 13.028 96.0762 12.764C96.0762 12.252 95.7242 11.996 95.0202 11.996H93.6882V13.616H95.0562ZM95.0802 16.148C95.8322 16.148 96.2082 15.864 96.2082 15.296C96.2082 15 96.1042 14.78 95.8962 14.636C95.6882 14.492 95.4002 14.42 95.0322 14.42H93.6882V16.148H95.0802ZM102.766 11.456C102.878 11.296 102.986 11.184 103.09 11.12C103.194 11.056 103.334 11.024 103.51 11.024C103.702 11.024 103.854 11.08 103.966 11.192C104.078 11.296 104.134 11.44 104.134 11.624V16.472C104.134 16.648 104.082 16.792 103.978 16.904C103.874 17.008 103.734 17.06 103.558 17.06C103.39 17.06 103.25 17.008 103.138 16.904C103.034 16.792 102.982 16.648 102.982 16.472V12.656L100.102 16.652C99.9897 16.812 99.8777 16.92 99.7657 16.976C99.6617 17.032 99.5297 17.06 99.3697 17.06C99.1857 17.06 99.0337 17.008 98.9137 16.904C98.8017 16.792 98.7457 16.648 98.7457 16.472V11.612C98.7457 11.444 98.7977 11.304 98.9017 11.192C99.0137 11.08 99.1577 11.024 99.3337 11.024C99.5017 11.024 99.6377 11.08 99.7417 11.192C99.8537 11.304 99.9097 11.444 99.9097 11.612V15.392L102.766 11.456ZM107.733 17.06C107.549 17.06 107.401 17.008 107.289 16.904C107.177 16.8 107.121 16.66 107.121 16.484V12.08H105.561C105.417 12.08 105.301 12.036 105.213 11.948C105.125 11.86 105.081 11.748 105.081 11.612C105.081 11.476 105.125 11.364 105.213 11.276C105.301 11.188 105.417 11.144 105.561 11.144H109.893C110.045 11.144 110.165 11.188 110.253 11.276C110.341 11.364 110.385 11.476 110.385 11.612C110.385 11.748 110.341 11.86 110.253 11.948C110.165 12.036 110.045 12.08 109.893 12.08H108.333V16.484C108.333 16.66 108.277 16.8 108.165 16.904C108.061 17.008 107.917 17.06 107.733 17.06ZM115.858 15.524C115.97 15.524 116.062 15.568 116.134 15.656C116.206 15.744 116.242 15.856 116.242 15.992C116.242 16.224 116.098 16.42 115.81 16.58C115.53 16.74 115.222 16.864 114.886 16.952C114.558 17.04 114.242 17.084 113.938 17.084C113.01 17.084 112.278 16.816 111.742 16.28C111.206 15.736 110.938 14.996 110.938 14.06C110.938 13.46 111.054 12.928 111.286 12.464C111.526 12 111.858 11.64 112.282 11.384C112.714 11.128 113.202 11 113.746 11C114.53 11 115.15 11.252 115.606 11.756C116.062 12.26 116.29 12.94 116.29 13.796C116.29 14.116 116.146 14.276 115.858 14.276H112.15C112.23 15.516 112.826 16.136 113.938 16.136C114.234 16.136 114.49 16.096 114.706 16.016C114.922 15.936 115.15 15.832 115.39 15.704C115.414 15.688 115.478 15.656 115.582 15.608C115.694 15.552 115.786 15.524 115.858 15.524ZM113.77 11.888C113.306 11.888 112.934 12.036 112.654 12.332C112.374 12.628 112.206 13.044 112.15 13.58H115.246C115.222 13.036 115.082 12.62 114.826 12.332C114.578 12.036 114.226 11.888 113.77 11.888ZM124.785 11.456C124.897 11.296 125.005 11.184 125.109 11.12C125.213 11.056 125.353 11.024 125.529 11.024C125.721 11.024 125.873 11.08 125.985 11.192C126.097 11.296 126.153 11.44 126.153 11.624V16.472C126.153 16.648 126.101 16.792 125.997 16.904C125.893 17.008 125.753 17.06 125.577 17.06C125.409 17.06 125.269 17.008 125.157 16.904C125.053 16.792 125.001 16.648 125.001 16.472V12.656L122.121 16.652C122.009 16.812 121.897 16.92 121.785 16.976C121.681 17.032 121.549 17.06 121.389 17.06C121.205 17.06 121.053 17.008 120.933 16.904C120.821 16.792 120.765 16.648 120.765 16.472V11.612C120.765 11.444 120.817 11.304 120.921 11.192C121.033 11.08 121.177 11.024 121.353 11.024C121.521 11.024 121.657 11.08 121.761 11.192C121.873 11.304 121.929 11.444 121.929 11.612V15.392L124.785 11.456ZM129.716 17.084C128.9 17.084 128.204 16.912 127.628 16.568C127.42 16.456 127.316 16.3 127.316 16.1C127.316 15.98 127.36 15.88 127.448 15.8C127.536 15.712 127.648 15.668 127.784 15.668C127.88 15.668 127.976 15.692 128.072 15.74C128.32 15.876 128.564 15.976 128.804 16.04C129.052 16.104 129.324 16.136 129.62 16.136C130.012 16.136 130.352 16.06 130.64 15.908C130.928 15.756 131.072 15.524 131.072 15.212C131.072 14.7 130.708 14.444 129.98 14.444H129.128C128.992 14.444 128.88 14.404 128.792 14.324C128.712 14.236 128.672 14.124 128.672 13.988C128.672 13.86 128.716 13.756 128.804 13.676C128.892 13.588 129 13.544 129.128 13.544H129.908C130.244 13.544 130.5 13.472 130.676 13.328C130.86 13.176 130.952 12.98 130.952 12.74C130.952 12.492 130.848 12.304 130.64 12.176C130.432 12.04 130.136 11.972 129.752 11.972C129.44 11.972 129.164 12.004 128.924 12.068C128.692 12.132 128.456 12.228 128.216 12.356C128.12 12.396 128.032 12.416 127.952 12.416C127.824 12.416 127.712 12.372 127.616 12.284C127.528 12.196 127.484 12.096 127.484 11.984C127.484 11.784 127.592 11.632 127.808 11.528C128.44 11.176 129.16 11 129.968 11C130.712 11 131.272 11.144 131.648 11.432C132.032 11.72 132.224 12.104 132.224 12.584C132.224 12.88 132.132 13.152 131.948 13.4C131.764 13.648 131.508 13.828 131.18 13.94C131.948 14.108 132.332 14.56 132.332 15.296C132.332 15.656 132.216 15.972 131.984 16.244C131.752 16.516 131.436 16.724 131.036 16.868C130.636 17.012 130.196 17.084 129.716 17.084Z" fill="#F7F9FF"/>
</svg>
