<svg width="180" height="56" viewBox="0 0 180 56" fill="none" xmlns="http://www.w3.org/2000/svg">
<rect width="180" height="56" rx="12" fill="#0D143B"/>
<path d="M38.4697 30.9204H39.4324L38.9503 29.7979L38.4697 30.9204Z" fill="#F7F9FF"/>
<path fill-rule="evenodd" clip-rule="evenodd" d="M45.2476 17H34.7524C29.8086 17 28 18.8086 28 23.7524V34.2476C28 39.1914 29.8086 41 34.7524 41H45.2447C50.1884 41 52 39.1914 52 34.2476V23.7524C52 18.8086 50.1914 17 45.2476 17ZM32.7514 29.0022H33.3873V32.1403H32.7514V30.8655H31.314V32.1403H30.6766V29.0022H31.314V30.2681H32.7514V29.0022ZM36.3391 30.799C36.3391 31.3092 36.0862 31.5813 35.6263 31.5813C35.1634 31.5813 34.909 31.3003 34.909 30.7768V29.0037H34.2717V30.7975C34.2717 31.6804 34.7626 32.1861 35.6174 32.1861C36.481 32.1861 36.9764 31.67 36.9764 30.7709V29.0007H36.3405V30.799H36.3391ZM43.6963 31.1598L42.9835 29.0022H42.4644L41.7516 31.1598L41.058 29.0037H40.3807L41.4751 32.1403H42.0015L42.7158 30.0803L43.4286 32.1403H43.9595L45.0509 29.0037H44.3913L43.6963 31.1598ZM46.1925 30.7901H47.3505V30.2193H46.1925V29.5775H47.874V29.0052H45.5655V32.1388H47.9346V31.5665H46.1925V30.7901ZM48.6932 32.1359H49.3217V29.0022H48.6932V32.1359ZM38.2334 31.4852L37.948 32.1388H37.2973L38.6801 29.0022H39.242L40.6188 32.1388H39.9519L39.6694 31.4852H38.2334ZM36.005 21.012C36.005 23.2155 37.7959 25.0078 39.9994 25.0078C42.2028 25.0078 43.9952 23.2155 43.9967 21.012H43.4317C43.4317 22.9035 41.8923 24.4429 40.0008 24.4429C38.1094 24.4429 36.5699 22.9035 36.5699 21.012H36.005Z" fill="#F7F9FF"/>
<path d="M70.892 35.8056H66.206L65.0595 38.9402H63L67.5891 27.2324H69.5359L74.2299 38.9402H72.0639L70.892 35.8056ZM66.7967 34.2145H70.295L69.0421 30.8608C68.8706 30.3972 68.7007 29.8858 68.5324 29.3253C68.3815 29.8207 68.2179 30.3273 68.0401 30.845L66.7967 34.2145Z" fill="#F7F9FF"/>
<path d="M75.1589 32.3561C75.1589 31.7098 75.1366 30.9984 75.0938 30.2235H76.9675C77.0374 30.584 77.085 30.9539 77.1136 31.3303C77.8885 30.4839 78.7778 30.0615 79.7798 30.0615C80.361 30.0615 80.9008 30.2076 81.3947 30.5014C81.8901 30.7952 82.2903 31.2588 82.5951 31.8908C82.9001 32.5244 83.0525 33.3279 83.0525 34.3029C83.0525 35.3208 82.8778 36.1909 82.53 36.9135C82.1839 37.636 81.6964 38.1822 81.0723 38.5538C80.4483 38.9254 79.7257 39.1112 78.9064 39.1112C78.3141 39.1112 77.7297 39.0111 77.1533 38.8126V42.4156L75.1573 42.5855V32.3561H75.1589ZM80.407 36.8118C80.8135 36.2656 81.0168 35.4668 81.0168 34.4156C81.0168 33.4406 80.8485 32.734 80.5119 32.2942C80.1752 31.8559 79.7274 31.6352 79.1669 31.6352C78.7794 31.6352 78.4206 31.7273 78.0919 31.9099C77.7632 32.0925 77.4502 32.3386 77.1549 32.6451V37.3152C77.3534 37.4121 77.5853 37.4883 77.8489 37.5454C78.1125 37.6026 78.3744 37.6296 78.6332 37.6296C79.4097 37.6312 80.0005 37.3581 80.407 36.8118Z" fill="#F7F9FF"/>
<path d="M84.3308 32.3561C84.3308 31.7098 84.3085 30.9984 84.2656 30.2235H86.1394C86.2093 30.584 86.2569 30.9539 86.2855 31.3303C87.0604 30.4839 87.9496 30.0615 88.9516 30.0615C89.5328 30.0615 90.0727 30.2076 90.5666 30.5014C91.062 30.7952 91.4622 31.2588 91.767 31.8908C92.0719 32.5244 92.2244 33.3279 92.2244 34.3029C92.2244 35.3208 92.0497 36.1909 91.7019 36.9135C91.3558 37.636 90.8683 38.1822 90.2442 38.5538C89.6202 38.9254 88.8976 39.1112 88.0783 39.1112C87.486 39.1112 86.9016 39.0111 86.3252 38.8126V42.4156L84.3292 42.5855V32.3561H84.3308ZM89.5789 36.8118C89.9854 36.2656 90.1886 35.4668 90.1886 34.4156C90.1886 33.4406 90.0203 32.734 89.6837 32.2942C89.347 31.8559 88.8992 31.6352 88.3387 31.6352C87.9512 31.6352 87.5924 31.7273 87.2637 31.9099C86.935 32.0925 86.6221 32.3386 86.3268 32.6451V37.3152C86.5253 37.4121 86.7571 37.4883 87.0207 37.5454C87.2843 37.6026 87.5463 37.6296 87.8051 37.6296C88.5816 37.6312 89.1724 37.3581 89.5789 36.8118Z" fill="#F7F9FF"/>
<path d="M95.9896 38.3872C95.1274 37.9108 94.4652 37.228 94.0015 36.3387C93.5379 35.4495 93.3076 34.3999 93.3076 33.1883C93.3076 31.8735 93.5744 30.7571 94.1063 29.8393C94.6399 28.9215 95.3656 28.2323 96.285 27.7718C97.2028 27.3113 98.2334 27.0811 99.3751 27.0811C100.048 27.0811 100.69 27.1557 101.301 27.3034C101.913 27.4511 102.483 27.6543 103.01 27.9132L102.5 29.4487C101.439 28.9421 100.426 28.6897 99.4624 28.6897C98.6494 28.6897 97.9364 28.8627 97.3251 29.2105C96.7137 29.5583 96.2389 30.068 95.8991 30.7413C95.5609 31.4145 95.3894 32.2276 95.3894 33.1819C95.3894 34.0172 95.5196 34.7571 95.7816 35.4034C96.042 36.0497 96.4549 36.561 97.017 36.939C97.5791 37.3169 98.289 37.5043 99.1464 37.5043C99.5339 37.5043 99.9229 37.4725 100.31 37.4074C100.698 37.3423 101.062 37.2486 101.401 37.1247V34.7571H98.6955V33.2057H103.342V38.1347C102.673 38.4475 101.971 38.6873 101.238 38.854C100.503 39.0207 99.7721 39.1049 99.0432 39.1049C97.8697 39.1017 96.8519 38.8635 95.9896 38.3872Z" fill="#F7F9FF"/>
<path d="M110.533 38.9418C110.463 38.602 110.417 38.2177 110.396 37.7858C110.09 38.1526 109.69 38.4639 109.196 38.7195C108.704 38.9752 108.148 39.1038 107.527 39.1038C107.025 39.1038 106.569 39.0053 106.156 38.8084C105.745 38.6115 105.418 38.3162 105.175 37.9192C104.932 37.5238 104.812 37.0395 104.812 36.4694C104.812 35.623 105.116 34.9498 105.725 34.4448C106.333 33.9414 107.347 33.6889 108.77 33.6889C109.304 33.6889 109.831 33.7271 110.353 33.8017V33.6318C110.353 32.8616 110.19 32.3186 109.86 32.0041C109.531 31.6897 109.061 31.5309 108.446 31.5309C108.021 31.5309 107.565 31.5929 107.081 31.7167C106.596 31.8406 106.171 31.9883 105.804 32.1614L105.49 30.7068C105.845 30.5448 106.314 30.3972 106.896 30.2622C107.478 30.1272 108.092 30.0605 108.738 30.0605C109.493 30.0605 110.133 30.1748 110.661 30.4035C111.189 30.6322 111.601 31.026 111.897 31.5833C112.194 32.1407 112.341 32.8918 112.341 33.8334V37.2999C112.341 37.6604 112.362 38.2082 112.407 38.9402H110.533V38.9418ZM109.337 37.3253C109.752 37.1268 110.091 36.8791 110.355 36.5822V34.9656C109.81 34.9069 109.367 34.8767 109.021 34.8767C108.197 34.8767 107.627 35.0101 107.312 35.2769C106.998 35.5436 106.839 35.9025 106.839 36.3551C106.839 36.7854 106.954 37.1062 107.182 37.3126C107.411 37.5206 107.722 37.6238 108.116 37.6238C108.516 37.6238 108.923 37.5238 109.337 37.3253Z" fill="#F7F9FF"/>
<path d="M114.089 36.8486V26.5477L116.075 26.3857V36.4929C116.075 36.8645 116.139 37.1265 116.266 37.2805C116.393 37.4346 116.593 37.5108 116.867 37.5108C116.991 37.5108 117.166 37.4806 117.393 37.4219L117.628 38.8526C117.439 38.9288 117.209 38.9892 116.937 39.0336C116.666 39.0797 116.409 39.1019 116.166 39.1019C114.781 39.1019 114.089 38.3508 114.089 36.8486Z" fill="#F7F9FF"/>
<path d="M119.059 36.8486V26.5477L121.045 26.3857V36.4929C121.045 36.8645 121.109 37.1265 121.236 37.2805C121.363 37.4346 121.563 37.5108 121.838 37.5108C121.962 37.5108 122.136 37.4806 122.363 37.4219L122.598 38.8526C122.409 38.9288 122.179 38.9892 121.908 39.0336C121.636 39.0797 121.379 39.1019 121.136 39.1019C119.75 39.1019 119.059 38.3508 119.059 36.8486Z" fill="#F7F9FF"/>
<path d="M130.871 34.8364H125.168C125.26 36.6626 126.13 37.5756 127.778 37.5756C128.188 37.5756 128.605 37.5264 129.034 37.4264C129.463 37.3263 129.873 37.1929 130.266 37.0262L130.703 38.3918C129.728 38.865 128.632 39.1032 127.414 39.1032C126.489 39.1032 125.707 38.9285 125.071 38.5776C124.435 38.2267 123.958 37.7233 123.637 37.0659C123.316 36.4085 123.156 35.6177 123.156 34.6903C123.156 33.7265 123.326 32.8976 123.665 32.2021C124.005 31.5065 124.477 30.9762 125.083 30.611C125.688 30.2441 126.389 30.0615 127.179 30.0615C128.004 30.0615 128.693 30.2537 129.244 30.6395C129.795 31.0254 130.204 31.5383 130.471 32.1782C130.738 32.8198 130.871 33.528 130.871 34.3029V34.8364ZM128.923 33.5677C128.886 32.8722 128.71 32.3513 128.397 32.0036C128.085 31.6558 127.667 31.4827 127.144 31.4827C126.638 31.4827 126.217 31.6574 125.881 32.0083C125.544 32.3593 125.325 32.8785 125.222 33.5677H128.923Z" fill="#F7F9FF"/>
<path d="M132.478 32.4122C132.478 31.9327 132.456 31.2022 132.413 30.2225H134.279C134.312 30.4654 134.343 30.7544 134.373 31.0911C134.401 31.4277 134.422 31.7009 134.433 31.9105C134.665 31.5278 134.892 31.207 135.116 30.945C135.34 30.683 135.602 30.4702 135.9 30.3066C136.199 30.1415 136.54 30.0605 136.921 30.0605C137.228 30.0605 137.493 30.0923 137.714 30.1574L137.463 31.8866C137.269 31.8279 137.053 31.7977 136.817 31.7977C136.348 31.7977 135.938 31.9184 135.589 32.1566C135.238 32.3964 134.865 32.7902 134.466 33.3396V38.9386H132.478V32.4122Z" fill="#F7F9FF"/>
<path d="M138.911 42.5079C138.62 42.4571 138.381 42.3983 138.192 42.3348L138.555 40.8803C138.69 40.9184 138.86 40.9533 139.065 40.9898C139.27 41.0248 139.464 41.0422 139.646 41.0422C140.529 41.0422 141.191 40.4737 141.634 39.3368L141.763 39.0144L138.547 30.2236H140.688L142.304 35.1367C142.568 35.9767 142.738 36.6214 142.814 37.0676C142.965 36.4372 143.143 35.8068 143.348 35.1764L144.988 30.2236H147L143.792 39.0541C143.491 39.8894 143.165 40.5627 142.814 41.074C142.463 41.5853 142.05 41.9648 141.574 42.2125C141.096 42.4602 140.521 42.5841 139.849 42.5841C139.514 42.5841 139.203 42.5587 138.911 42.5079Z" fill="#F7F9FF"/>
<path opacity="0.4" d="M69.504 8.828C69.632 8.596 69.808 8.48 70.032 8.48C70.184 8.48 70.316 8.532 70.428 8.636C70.548 8.74 70.608 8.872 70.608 9.032C70.608 9.136 70.58 9.24 70.524 9.344L66.768 16.7C66.64 16.94 66.46 17.06 66.228 17.06C66.076 17.06 65.94 17.008 65.82 16.904C65.708 16.792 65.652 16.656 65.652 16.496C65.652 16.408 65.676 16.312 65.724 16.208L66.624 14.456L63.48 9.368C63.408 9.248 63.372 9.132 63.372 9.02C63.372 8.868 63.428 8.74 63.54 8.636C63.66 8.524 63.792 8.468 63.936 8.468C64.144 8.468 64.312 8.572 64.44 8.78L67.224 13.292L69.504 8.828ZM73.5902 17.084C73.0222 17.084 72.5222 16.96 72.0902 16.712C71.6662 16.464 71.3342 16.112 71.0942 15.656C70.8622 15.2 70.7462 14.672 70.7462 14.072C70.7462 13.464 70.8662 12.928 71.1062 12.464C71.3542 12 71.6982 11.64 72.1382 11.384C72.5782 11.128 73.0822 11 73.6502 11C73.9542 11 74.2582 11.044 74.5622 11.132C74.8742 11.22 75.1502 11.34 75.3902 11.492C75.6462 11.668 75.7742 11.872 75.7742 12.104C75.7742 12.24 75.7382 12.356 75.6662 12.452C75.5942 12.54 75.5022 12.584 75.3902 12.584C75.3182 12.584 75.2462 12.568 75.1742 12.536C75.1022 12.496 75.0102 12.44 74.8982 12.368C74.6982 12.24 74.5102 12.144 74.3342 12.08C74.1662 12.008 73.9622 11.972 73.7222 11.972C73.1782 11.972 72.7542 12.156 72.4502 12.524C72.1542 12.892 72.0062 13.404 72.0062 14.06C72.0062 14.716 72.1542 15.224 72.4502 15.584C72.7462 15.936 73.1662 16.112 73.7102 16.112C73.9502 16.112 74.1622 16.076 74.3462 16.004C74.5302 15.932 74.7182 15.836 74.9102 15.716C74.9982 15.66 75.0862 15.612 75.1742 15.572C75.2622 15.532 75.3422 15.512 75.4142 15.512C75.5262 15.512 75.6182 15.56 75.6902 15.656C75.7622 15.744 75.7982 15.856 75.7982 15.992C75.7982 16.104 75.7662 16.208 75.7022 16.304C75.6462 16.392 75.5462 16.484 75.4022 16.58C75.1622 16.74 74.8822 16.864 74.5622 16.952C74.2422 17.04 73.9182 17.084 73.5902 17.084ZM78.815 17.06C78.631 17.06 78.483 17.008 78.371 16.904C78.259 16.8 78.203 16.66 78.203 16.484V12.08H76.643C76.499 12.08 76.383 12.036 76.295 11.948C76.207 11.86 76.163 11.748 76.163 11.612C76.163 11.476 76.207 11.364 76.295 11.276C76.383 11.188 76.499 11.144 76.643 11.144H80.975C81.127 11.144 81.247 11.188 81.335 11.276C81.423 11.364 81.467 11.476 81.467 11.612C81.467 11.748 81.423 11.86 81.335 11.948C81.247 12.036 81.127 12.08 80.975 12.08H79.415V16.484C79.415 16.66 79.359 16.8 79.247 16.904C79.143 17.008 78.999 17.06 78.815 17.06ZM84.8156 11C85.5916 11 86.1676 11.196 86.5436 11.588C86.9276 11.98 87.1196 12.576 87.1196 13.376V16.484C87.1196 16.668 87.0676 16.812 86.9636 16.916C86.8596 17.012 86.7156 17.06 86.5316 17.06C86.3556 17.06 86.2156 17.008 86.1116 16.904C86.0076 16.8 85.9556 16.66 85.9556 16.484V16.04C85.8036 16.376 85.5756 16.636 85.2716 16.82C84.9756 16.996 84.6276 17.084 84.2276 17.084C83.8436 17.084 83.4916 17.008 83.1716 16.856C82.8596 16.696 82.6116 16.48 82.4276 16.208C82.2436 15.936 82.1516 15.628 82.1516 15.284C82.1436 14.852 82.2516 14.516 82.4756 14.276C82.6996 14.028 83.0636 13.852 83.5676 13.748C84.0716 13.636 84.7716 13.58 85.6676 13.58H85.9436V13.232C85.9436 12.784 85.8516 12.46 85.6676 12.26C85.4836 12.06 85.1876 11.96 84.7796 11.96C84.4996 11.96 84.2356 11.996 83.9876 12.068C83.7396 12.14 83.4676 12.244 83.1716 12.38C82.9556 12.5 82.8036 12.56 82.7156 12.56C82.5956 12.56 82.4956 12.516 82.4156 12.428C82.3436 12.34 82.3076 12.228 82.3076 12.092C82.3076 11.972 82.3396 11.868 82.4036 11.78C82.4756 11.684 82.5876 11.592 82.7396 11.504C83.0196 11.352 83.3476 11.232 83.7236 11.144C84.0996 11.048 84.4636 11 84.8156 11ZM84.4436 16.184C84.8836 16.184 85.2436 16.036 85.5236 15.74C85.8036 15.436 85.9436 15.048 85.9436 14.576V14.264H85.7276C85.1036 14.264 84.6236 14.292 84.2876 14.348C83.9516 14.404 83.7116 14.5 83.5676 14.636C83.4236 14.764 83.3516 14.952 83.3516 15.2C83.3516 15.488 83.4556 15.724 83.6636 15.908C83.8716 16.092 84.1316 16.184 84.4436 16.184ZM89.3655 17.06C89.1815 17.06 89.0335 17.008 88.9215 16.904C88.8095 16.8 88.7535 16.66 88.7535 16.484V11.6C88.7535 11.424 88.8095 11.284 88.9215 11.18C89.0335 11.076 89.1815 11.024 89.3655 11.024C89.5495 11.024 89.6935 11.076 89.7975 11.18C89.9095 11.284 89.9655 11.424 89.9655 11.6V13.52H92.8455V11.6C92.8455 11.424 92.9015 11.284 93.0135 11.18C93.1255 11.076 93.2735 11.024 93.4575 11.024C93.6415 11.024 93.7855 11.076 93.8895 11.18C94.0015 11.284 94.0575 11.424 94.0575 11.6L94.0695 16.448C94.0695 16.632 94.0135 16.78 93.9015 16.892C93.7895 17.004 93.6415 17.06 93.4575 17.06C93.2735 17.06 93.1255 17.004 93.0135 16.892C92.9015 16.78 92.8455 16.632 92.8455 16.448V14.48H89.9655V16.484C89.9655 16.66 89.9095 16.8 89.7975 16.904C89.6935 17.008 89.5495 17.06 89.3655 17.06ZM98.2707 17.084C97.6947 17.084 97.1867 16.96 96.7467 16.712C96.3147 16.464 95.9787 16.112 95.7387 15.656C95.5067 15.192 95.3907 14.656 95.3907 14.048C95.3907 13.432 95.5067 12.896 95.7387 12.44C95.9787 11.976 96.3147 11.62 96.7467 11.372C97.1867 11.124 97.6947 11 98.2707 11C98.8467 11 99.3507 11.124 99.7827 11.372C100.223 11.62 100.559 11.976 100.791 12.44C101.031 12.896 101.151 13.432 101.151 14.048C101.151 14.656 101.031 15.192 100.791 15.656C100.559 16.112 100.223 16.464 99.7827 16.712C99.3507 16.96 98.8467 17.084 98.2707 17.084ZM98.2707 16.124C98.8067 16.124 99.2147 15.948 99.4947 15.596C99.7827 15.244 99.9267 14.728 99.9267 14.048C99.9267 13.376 99.7827 12.864 99.4947 12.512C99.2067 12.152 98.7987 11.972 98.2707 11.972C97.7427 11.972 97.3347 12.152 97.0467 12.512C96.7587 12.864 96.6147 13.376 96.6147 14.048C96.6147 14.728 96.7547 15.244 97.0347 15.596C97.3227 15.948 97.7347 16.124 98.2707 16.124ZM103.1 17C102.908 17 102.756 16.948 102.644 16.844C102.532 16.74 102.476 16.596 102.476 16.412V11.768C102.476 11.584 102.528 11.436 102.632 11.324C102.744 11.204 102.888 11.144 103.064 11.144H105.212C105.86 11.144 106.364 11.272 106.724 11.528C107.092 11.784 107.276 12.156 107.276 12.644C107.276 12.932 107.192 13.2 107.024 13.448C106.856 13.696 106.6 13.876 106.256 13.988C106.624 14.06 106.912 14.216 107.12 14.456C107.328 14.688 107.432 14.988 107.432 15.356C107.432 15.644 107.352 15.916 107.192 16.172C107.032 16.42 106.788 16.62 106.46 16.772C106.132 16.924 105.728 17 105.248 17H103.1ZM105.056 13.616C105.368 13.616 105.616 13.54 105.8 13.388C105.984 13.236 106.076 13.028 106.076 12.764C106.076 12.252 105.724 11.996 105.02 11.996H103.688V13.616H105.056ZM105.08 16.148C105.832 16.148 106.208 15.864 106.208 15.296C106.208 15 106.104 14.78 105.896 14.636C105.688 14.492 105.4 14.42 105.032 14.42H103.688V16.148H105.08ZM112.766 11.456C112.878 11.296 112.986 11.184 113.09 11.12C113.194 11.056 113.334 11.024 113.51 11.024C113.702 11.024 113.854 11.08 113.966 11.192C114.078 11.296 114.134 11.44 114.134 11.624V16.472C114.134 16.648 114.082 16.792 113.978 16.904C113.874 17.008 113.734 17.06 113.558 17.06C113.39 17.06 113.25 17.008 113.138 16.904C113.034 16.792 112.982 16.648 112.982 16.472V12.656L110.102 16.652C109.99 16.812 109.878 16.92 109.766 16.976C109.662 17.032 109.53 17.06 109.37 17.06C109.186 17.06 109.034 17.008 108.914 16.904C108.802 16.792 108.746 16.648 108.746 16.472V11.612C108.746 11.444 108.798 11.304 108.902 11.192C109.014 11.08 109.158 11.024 109.334 11.024C109.502 11.024 109.638 11.08 109.742 11.192C109.854 11.304 109.91 11.444 109.91 11.612V15.392L112.766 11.456ZM117.733 17.06C117.549 17.06 117.401 17.008 117.289 16.904C117.177 16.8 117.121 16.66 117.121 16.484V12.08H115.561C115.417 12.08 115.301 12.036 115.213 11.948C115.125 11.86 115.081 11.748 115.081 11.612C115.081 11.476 115.125 11.364 115.213 11.276C115.301 11.188 115.417 11.144 115.561 11.144H119.893C120.045 11.144 120.165 11.188 120.253 11.276C120.341 11.364 120.385 11.476 120.385 11.612C120.385 11.748 120.341 11.86 120.253 11.948C120.165 12.036 120.045 12.08 119.893 12.08H118.333V16.484C118.333 16.66 118.277 16.8 118.165 16.904C118.061 17.008 117.917 17.06 117.733 17.06ZM125.858 15.524C125.97 15.524 126.062 15.568 126.134 15.656C126.206 15.744 126.242 15.856 126.242 15.992C126.242 16.224 126.098 16.42 125.81 16.58C125.53 16.74 125.222 16.864 124.886 16.952C124.558 17.04 124.242 17.084 123.938 17.084C123.01 17.084 122.278 16.816 121.742 16.28C121.206 15.736 120.938 14.996 120.938 14.06C120.938 13.46 121.054 12.928 121.286 12.464C121.526 12 121.858 11.64 122.282 11.384C122.714 11.128 123.202 11 123.746 11C124.53 11 125.15 11.252 125.606 11.756C126.062 12.26 126.29 12.94 126.29 13.796C126.29 14.116 126.146 14.276 125.858 14.276H122.15C122.23 15.516 122.826 16.136 123.938 16.136C124.234 16.136 124.49 16.096 124.706 16.016C124.922 15.936 125.15 15.832 125.39 15.704C125.414 15.688 125.478 15.656 125.582 15.608C125.694 15.552 125.786 15.524 125.858 15.524ZM123.77 11.888C123.306 11.888 122.934 12.036 122.654 12.332C122.374 12.628 122.206 13.044 122.15 13.58H125.246C125.222 13.036 125.082 12.62 124.826 12.332C124.578 12.036 124.226 11.888 123.77 11.888ZM134.785 11.456C134.897 11.296 135.005 11.184 135.109 11.12C135.213 11.056 135.353 11.024 135.529 11.024C135.721 11.024 135.873 11.08 135.985 11.192C136.097 11.296 136.153 11.44 136.153 11.624V16.472C136.153 16.648 136.101 16.792 135.997 16.904C135.893 17.008 135.753 17.06 135.577 17.06C135.409 17.06 135.269 17.008 135.157 16.904C135.053 16.792 135.001 16.648 135.001 16.472V12.656L132.121 16.652C132.009 16.812 131.897 16.92 131.785 16.976C131.681 17.032 131.549 17.06 131.389 17.06C131.205 17.06 131.053 17.008 130.933 16.904C130.821 16.792 130.765 16.648 130.765 16.472V11.612C130.765 11.444 130.817 11.304 130.921 11.192C131.033 11.08 131.177 11.024 131.353 11.024C131.521 11.024 131.657 11.08 131.761 11.192C131.873 11.304 131.929 11.444 131.929 11.612V15.392L134.785 11.456ZM139.716 17.084C138.9 17.084 138.204 16.912 137.628 16.568C137.42 16.456 137.316 16.3 137.316 16.1C137.316 15.98 137.36 15.88 137.448 15.8C137.536 15.712 137.648 15.668 137.784 15.668C137.88 15.668 137.976 15.692 138.072 15.74C138.32 15.876 138.564 15.976 138.804 16.04C139.052 16.104 139.324 16.136 139.62 16.136C140.012 16.136 140.352 16.06 140.64 15.908C140.928 15.756 141.072 15.524 141.072 15.212C141.072 14.7 140.708 14.444 139.98 14.444H139.128C138.992 14.444 138.88 14.404 138.792 14.324C138.712 14.236 138.672 14.124 138.672 13.988C138.672 13.86 138.716 13.756 138.804 13.676C138.892 13.588 139 13.544 139.128 13.544H139.908C140.244 13.544 140.5 13.472 140.676 13.328C140.86 13.176 140.952 12.98 140.952 12.74C140.952 12.492 140.848 12.304 140.64 12.176C140.432 12.04 140.136 11.972 139.752 11.972C139.44 11.972 139.164 12.004 138.924 12.068C138.692 12.132 138.456 12.228 138.216 12.356C138.12 12.396 138.032 12.416 137.952 12.416C137.824 12.416 137.712 12.372 137.616 12.284C137.528 12.196 137.484 12.096 137.484 11.984C137.484 11.784 137.592 11.632 137.808 11.528C138.44 11.176 139.16 11 139.968 11C140.712 11 141.272 11.144 141.648 11.432C142.032 11.72 142.224 12.104 142.224 12.584C142.224 12.88 142.132 13.152 141.948 13.4C141.764 13.648 141.508 13.828 141.18 13.94C141.948 14.108 142.332 14.56 142.332 15.296C142.332 15.656 142.216 15.972 141.984 16.244C141.752 16.516 141.436 16.724 141.036 16.868C140.636 17.012 140.196 17.084 139.716 17.084Z" fill="#F7F9FF"/>
</svg>
