<svg width="15" height="16" viewBox="0 0 15 16" fill="none" xmlns="http://www.w3.org/2000/svg">
<path fill-rule="evenodd" clip-rule="evenodd" d="M1.68284 9.27203C1.65795 9.24135 1.65795 9.24135 1.63313 9.2107C1.25584 8.74456 1.04895 8.46749 0.95157 8.28485C0.798753 7.9929 0.790439 7.91377 0.845512 7.54696C0.910246 7.11449 1.37733 6.76683 1.86381 6.81357C2.20041 6.84535 2.49449 7.01885 3.0172 7.44652C3.0738 7.49269 3.14203 7.55896 3.22009 7.64322C3.26625 7.69306 3.31522 7.74847 3.36809 7.81042C3.4475 7.90348 3.71512 8.23094 3.6757 8.18329C3.73385 8.25321 3.77542 8.30737 3.82292 8.37374C3.91703 8.50808 3.96997 8.58269 4.04167 8.67829C4.00805 8.63341 4.2564 8.97672 4.30899 9.02692C4.58759 9.29285 4.99102 9.06888 4.96575 8.71447C4.96153 8.6553 4.94762 8.59139 4.91857 8.4798C4.8037 7.66056 4.76351 7.39762 4.67179 6.9124C4.63771 6.73216 4.60274 6.56142 4.56658 6.40021C4.50222 6.11464 4.46022 5.94014 4.41663 5.77596C4.40888 5.74689 4.40888 5.74689 4.40111 5.71813C4.3781 5.63331 4.27385 5.26342 4.2808 5.28824C4.22945 5.10355 4.18625 4.9345 4.13648 4.7269C4.12517 4.67961 4.12517 4.67961 4.11388 4.632C4.04739 4.34849 4.01 4.19024 3.96782 4.01873C3.85783 3.56305 3.73356 2.93153 3.70071 2.61105C3.62525 1.88683 3.67732 1.27686 3.87654 1.04416C4.03209 0.862593 4.47295 0.790107 4.71925 0.914835C4.88033 0.996316 5.0413 1.17615 5.19361 1.4366C5.25125 1.53518 5.30533 1.64087 5.36069 1.76018C5.39422 1.83244 5.49362 2.05855 5.48242 2.03355C5.69274 2.50347 5.83722 3.06442 5.97034 3.90026C6.00973 4.14793 6.05847 4.4285 6.12098 4.77177C6.13955 4.87356 6.13955 4.87356 6.1582 4.97491C6.4596 6.61025 6.43754 6.48631 6.44188 6.61674C6.45768 7.09252 7.15998 7.10366 7.19088 6.62862C7.20068 6.47797 7.19719 6.34346 7.1798 5.95716C7.17735 5.90251 7.17734 5.90251 7.17498 5.84806C7.15977 5.49215 7.16064 5.28739 7.18169 5.171C7.22003 4.95877 7.41056 4.72102 7.58603 4.66859C7.83245 4.59535 8.10244 4.57679 8.31873 4.62152C8.52577 4.66385 8.76738 4.82323 8.8367 4.94214C8.92023 5.08614 8.99186 5.30551 9.04676 5.57745C9.09107 5.79693 9.12156 6.03238 9.14301 6.28369C9.14968 6.36188 9.15404 6.42229 9.16073 6.52223C9.16358 6.56407 9.16358 6.56407 9.16642 6.59859C9.16803 6.6159 9.16803 6.6159 9.17194 6.64326C9.17497 6.66243 9.17497 6.66243 9.18928 6.711C9.19655 6.84882 9.19655 6.84882 9.75009 6.89993C9.91539 6.7001 9.91539 6.7001 9.91086 6.66506C9.93795 6.54671 9.95452 6.4148 9.97814 6.16693C9.99323 6.0058 10.0008 5.92659 10.0097 5.84443C10.0465 5.50431 10.0932 5.28821 10.1502 5.19322C10.2209 5.07503 10.47 4.91041 10.5817 4.89042C10.8623 4.8408 11.1703 4.83522 11.4082 4.88141C11.5159 4.90261 11.7787 5.10555 11.8409 5.20262C11.9687 5.40418 12.0929 6.054 12.1629 6.69874C12.1518 6.74103 12.1518 6.74103 12.3236 6.98634C12.9139 6.91904 12.9139 6.91904 12.8973 6.81245C12.9129 6.77446 12.9253 6.73053 12.9428 6.66231C12.985 6.5026 13.013 6.40987 13.0547 6.30595C13.0835 6.23406 13.1139 6.1726 13.145 6.12367C13.2657 5.93374 13.5781 5.80471 13.8521 5.84702C14.1463 5.89246 14.3338 6.11367 14.352 6.57598C14.3665 6.95641 14.3708 7.10266 14.3718 7.24621C14.3722 7.29918 14.3722 7.3417 14.3719 7.46131C14.3717 7.53522 14.3717 7.53522 14.3717 7.62528C14.3717 8.11421 14.3612 8.41882 14.3327 8.79929C14.2821 9.45255 14.1966 10.1421 14.1041 10.4664C14.0096 10.797 13.7276 11.4173 13.5043 11.7399C13.4885 11.7552 13.4205 11.8363 13.3336 11.9435C13.189 12.1219 13.0444 12.3085 12.9088 12.4948C12.8363 12.5945 12.7681 12.6917 12.7051 12.7857C12.4615 13.1495 12.3051 13.4465 12.2545 13.69C12.1881 14.0064 12.1643 14.1742 12.1572 14.3562C12.1555 14.4077 12.1555 14.4077 12.1544 14.4576C12.1518 14.5757 12.1503 14.6234 12.1453 14.7097C12.1401 14.8004 12.1415 14.8969 12.1488 14.9988C12.1592 15.1448 12.1488 15.3443 12.1488 15.3443C12.1488 15.3443 12.0222 15.3325 11.8809 15.3357C11.7084 15.3397 11.565 15.3338 11.4658 15.318C11.3228 15.2949 10.9365 14.8115 10.7387 14.4349C10.4364 13.8585 9.70262 13.8865 9.40182 14.3955C9.13052 14.8573 8.74217 15.3127 8.62689 15.3272C8.25228 15.3743 7.67218 15.3797 6.55513 15.3605C6.44834 15.3586 6.44834 15.3586 6.34165 15.3567C5.91275 15.3491 5.92923 15.4215 5.93801 15.3443C5.96308 15.124 5.96024 15.1653 5.93801 14.945C5.90075 14.5757 5.78676 14.2745 5.54924 14.0745C5.42637 13.9701 5.27941 13.8337 4.98423 13.5534C4.64701 13.233 4.5414 13.134 4.41124 13.0196L3.60994 12.1289C3.52198 12.0164 2.74991 10.695 2.39745 10.1835C2.26034 9.98493 2.20906 9.92048 1.68284 9.27203ZM11.1916 9.27579V12.7348C11.1916 13.2348 11.9416 13.2348 11.9416 12.7348V9.27579C11.9416 8.77579 11.1916 8.77579 11.1916 9.27579ZM9.15997 9.27521L9.17597 12.7482C9.17828 13.2482 9.92827 13.2448 9.92596 12.7448L9.90996 9.27176C9.90766 8.77176 9.15767 8.77522 9.15997 9.27521ZM7.95086 12.7288L7.92986 9.30279C7.9268 8.8028 7.17681 8.80739 7.17988 9.30738L7.20088 12.7334C7.20394 13.2334 7.95393 13.2288 7.95086 12.7288Z" fill="white"/>
</svg>
