<svg width="180" height="56" viewBox="0 0 180 56" fill="none" xmlns="http://www.w3.org/2000/svg">
<rect width="180" height="56" rx="12" fill="#0D143B"/>
<path d="M38.4727 15L49.2816 25.885L51.9995 23.1479V22.6918C51.9995 20.0172 51.721 19.0473 51.1982 18.0695C50.6752 17.0917 49.9079 16.3244 48.9301 15.8014C47.9523 15.2785 46.9825 15 44.308 15H38.4727Z" fill="#F7F9FF"/>
<path d="M35.9818 15L38.9369 17.9697L28 28.9612V22.6918C28 20.0172 28.2785 19.0473 28.8014 18.0695C29.3243 17.0917 30.0916 16.3244 31.0694 15.8014C32.0472 15.2785 33.017 15 35.6915 15H35.9818Z" fill="#F7F9FF"/>
<path d="M41.9714 38.9995H35.6916C33.017 38.9995 32.0472 38.721 31.0695 38.1981C30.0917 37.6752 29.3243 36.9078 28.8014 35.93C28.3093 35.0097 28.0336 34.0964 28.0029 31.7621L31.392 28.3506L41.9714 38.9995Z" fill="#F7F9FF"/>
<path d="M51.9988 25.5879V31.3092C51.9988 33.9839 51.7203 34.9537 51.1975 35.9315C50.6745 36.9093 49.9072 37.6766 48.9294 38.1996C48.0131 38.6897 47.1037 38.9651 44.7913 38.9978L41.7178 35.9114L51.9988 25.5879Z" fill="#F7F9FF"/>
<path d="M40.614 28.8209L43.1288 26.3061L44.0544 27.2318L39.9998 31.2865L35.9453 27.2318L36.8709 26.3061L39.3857 28.821V22.8467H40.614V28.8209Z" fill="#F7F9FF"/>
<path d="M67.225 25.8717C66.3879 25.8717 65.6511 26.0816 65.0144 26.5015C64.3895 26.9213 63.9062 27.5219 63.5643 28.3032C63.2223 29.0729 63.0514 29.9766 63.0514 31.0146C63.0514 32.0641 63.2165 32.9796 63.5466 33.7609C63.8767 34.5306 64.3483 35.1254 64.9614 35.5452C65.5744 35.9534 66.2937 36.1574 67.1189 36.1574C67.7556 36.1574 68.3156 36.035 68.799 35.7901C69.2941 35.5452 69.754 35.1895 70.1784 34.723V32.2566H67.0482V30.4023H72.1414V35.4402C71.493 36.2799 70.7443 36.9212 69.8954 37.3644C69.0583 37.7959 68.1329 38.0117 67.1189 38.0117C65.881 38.0117 64.8022 37.7259 63.8826 37.1545C62.963 36.5831 62.2497 35.7726 61.7428 34.723C61.2476 33.6618 61 32.4256 61 31.0146C61 29.5918 61.2535 28.3557 61.7604 27.3061C62.2674 26.2449 62.9866 25.4285 63.918 24.8571C64.8612 24.2857 65.9635 24 67.225 24C68.2625 24 69.188 24.2333 70.0015 24.6997C70.8268 25.1545 71.4871 25.7843 71.9822 26.5889L70.3906 27.691C70.0251 27.1428 69.5535 26.7055 68.9758 26.379C68.4099 26.0408 67.8263 25.8717 67.225 25.8717Z" fill="#F7F9FF"/>
<path d="M82.8322 32.1871C82.8322 32.7352 82.7851 33.2017 82.6907 33.5865H76.0589C76.1533 34.4495 76.4303 35.1259 76.8901 35.6156C77.3617 36.1054 77.9925 36.3503 78.7824 36.3503C79.2422 36.3503 79.6725 36.2338 80.0734 36.0005C80.4742 35.7556 80.8102 35.4116 81.0814 34.9684L82.6376 35.8256C82.2486 36.5253 81.7298 37.0675 81.0814 37.4524C80.433 37.8256 79.6666 38.0121 78.7824 38.0121C77.8156 38.0121 76.9785 37.8081 76.2711 37.3999C75.5638 36.9917 75.0155 36.4144 74.6265 35.6681C74.2491 34.9101 74.0605 34.0238 74.0605 33.0092C74.0605 31.9713 74.2433 31.0675 74.6088 30.2979C74.9742 29.5282 75.4989 28.9393 76.1827 28.5311C76.8665 28.1113 77.6682 27.9014 78.5878 27.9014C79.8965 27.9014 80.9282 28.2862 81.6827 29.0559C82.449 29.8256 82.8322 30.8693 82.8322 32.1871ZM80.8692 31.9422C80.8692 31.2191 80.6629 30.6419 80.2502 30.2104C79.8375 29.779 79.2835 29.5632 78.5878 29.5632C77.9394 29.5632 77.403 29.7731 76.9785 30.1929C76.5541 30.6011 76.2711 31.1841 76.1297 31.9422H80.8692Z" fill="#F7F9FF"/>
<path d="M90.0937 29.9476H87.388V34.828C87.388 35.2945 87.5118 35.656 87.7594 35.9126C88.0188 36.1691 88.3783 36.2974 88.8381 36.2974C89.1683 36.2974 89.5161 36.2333 89.8815 36.105V37.8892C89.4336 38.0408 88.9442 38.1166 88.4137 38.1166C87.4587 38.1166 86.7278 37.8542 86.2208 37.3295C85.7139 36.7931 85.4603 36.0291 85.4603 35.0379V29.9476H83.9395V28.1458H85.4603V25.207H87.388V28.1458H90.0937V29.9476Z" fill="#F7F9FF"/>
<path d="M102.652 37.767H100.53L99.0978 33.7262H94.1992L92.7667 37.767H90.6445L95.6139 24.2451H97.6831L102.652 37.767ZM96.5866 26.9915L94.8712 31.8544H98.4258L96.6927 26.9915H96.5866Z" fill="#F7F9FF"/>
<path d="M104.079 42.0005V28.1463H106.007V29.4582H106.095C106.437 28.9684 106.861 28.5894 107.368 28.3212C107.875 28.0413 108.418 27.9014 108.995 27.9014C109.785 27.9014 110.487 28.1113 111.1 28.5311C111.713 28.9393 112.19 29.5166 112.532 30.2629C112.874 30.9976 113.045 31.8431 113.045 32.7993C113.045 33.8139 112.874 34.7177 112.532 35.5107C112.19 36.3037 111.713 36.9217 111.1 37.3649C110.487 37.7964 109.785 38.0121 108.995 38.0121C108.382 38.0121 107.828 37.8781 107.333 37.6098C106.838 37.3416 106.425 36.9626 106.095 36.4728H106.007V42.0005H104.079ZM105.936 32.9568C105.936 33.913 106.166 34.6885 106.626 35.2833C107.097 35.878 107.699 36.1754 108.43 36.1754C109.208 36.1754 109.844 35.878 110.339 35.2833C110.835 34.6885 111.082 33.913 111.082 32.9568C111.082 32.3386 110.97 31.7847 110.746 31.295C110.534 30.8052 110.227 30.4262 109.827 30.1579C109.438 29.878 108.995 29.7381 108.5 29.7381C108.005 29.7381 107.563 29.878 107.174 30.1579C106.785 30.4262 106.478 30.8052 106.254 31.295C106.042 31.7847 105.936 32.3386 105.936 32.9568Z" fill="#F7F9FF"/>
<path d="M115.003 42.0005V28.1463H116.931V29.4582H117.019C117.361 28.9684 117.785 28.5894 118.292 28.3212C118.799 28.0413 119.342 27.9014 119.919 27.9014C120.709 27.9014 121.411 28.1113 122.024 28.5311C122.637 28.9393 123.114 29.5166 123.456 30.2629C123.798 30.9976 123.969 31.8431 123.969 32.7993C123.969 33.8139 123.798 34.7177 123.456 35.5107C123.114 36.3037 122.637 36.9217 122.024 37.3649C121.411 37.7964 120.709 38.0121 119.919 38.0121C119.306 38.0121 118.752 37.8781 118.257 37.6098C117.762 37.3416 117.349 36.9626 117.019 36.4728H116.931V42.0005H115.003ZM116.86 32.9568C116.86 33.913 117.09 34.6885 117.55 35.2833C118.021 35.878 118.622 36.1754 119.353 36.1754C120.132 36.1754 120.768 35.878 121.263 35.2833C121.759 34.6885 122.006 33.913 122.006 32.9568C122.006 32.3386 121.894 31.7847 121.67 31.295C121.458 30.8052 121.151 30.4262 120.75 30.1579C120.361 29.878 119.919 29.7381 119.424 29.7381C118.929 29.7381 118.487 29.878 118.098 30.1579C117.709 30.4262 117.402 30.8052 117.178 31.295C116.966 31.7847 116.86 32.3386 116.86 32.9568Z" fill="#F7F9FF"/>
<path d="M129.269 38.0121C128.314 38.0121 127.489 37.8081 126.793 37.3999C126.11 36.9801 125.597 36.4203 125.255 35.7206L126.881 34.8984C127.118 35.3533 127.442 35.709 127.854 35.9655C128.279 36.222 128.756 36.3503 129.287 36.3503C129.83 36.3503 130.248 36.2512 130.542 36.053C130.849 35.8431 131.002 35.5632 131.002 35.2133C131.002 34.8751 130.843 34.6011 130.525 34.3912C130.219 34.1696 129.706 33.9772 128.986 33.8139C127.831 33.5456 126.958 33.1842 126.369 32.7294C125.791 32.2629 125.502 31.6564 125.502 30.9101C125.502 29.9889 125.833 29.2599 126.492 28.7235C127.164 28.1754 128.061 27.9014 129.18 27.9014C130.042 27.9014 130.796 28.0938 131.444 28.4786C132.093 28.8635 132.611 29.3999 133 30.088L131.444 30.9801C131.161 30.5253 130.825 30.1754 130.436 29.9305C130.047 29.6856 129.629 29.5632 129.18 29.5632C128.662 29.5632 128.249 29.674 127.943 29.8955C127.637 30.1171 127.483 30.4087 127.483 30.7702C127.483 31.0967 127.654 31.3765 127.996 31.6098C128.349 31.8314 128.898 32.0238 129.64 32.1871C131.869 32.6769 132.983 33.6215 132.983 35.0209C132.983 35.9305 132.641 36.6593 131.957 37.2075C131.285 37.7439 130.389 38.0121 129.269 38.0121Z" fill="#F7F9FF"/>
<path opacity="0.4" d="M67.504 8.828C67.632 8.596 67.808 8.48 68.032 8.48C68.184 8.48 68.316 8.532 68.428 8.636C68.548 8.74 68.608 8.872 68.608 9.032C68.608 9.136 68.58 9.24 68.524 9.344L64.768 16.7C64.64 16.94 64.46 17.06 64.228 17.06C64.076 17.06 63.94 17.008 63.82 16.904C63.708 16.792 63.652 16.656 63.652 16.496C63.652 16.408 63.676 16.312 63.724 16.208L64.624 14.456L61.48 9.368C61.408 9.248 61.372 9.132 61.372 9.02C61.372 8.868 61.428 8.74 61.54 8.636C61.66 8.524 61.792 8.468 61.936 8.468C62.144 8.468 62.312 8.572 62.44 8.78L65.224 13.292L67.504 8.828ZM71.5902 17.084C71.0222 17.084 70.5222 16.96 70.0902 16.712C69.6662 16.464 69.3342 16.112 69.0942 15.656C68.8622 15.2 68.7462 14.672 68.7462 14.072C68.7462 13.464 68.8662 12.928 69.1062 12.464C69.3542 12 69.6982 11.64 70.1382 11.384C70.5782 11.128 71.0822 11 71.6502 11C71.9542 11 72.2582 11.044 72.5622 11.132C72.8742 11.22 73.1502 11.34 73.3902 11.492C73.6462 11.668 73.7742 11.872 73.7742 12.104C73.7742 12.24 73.7382 12.356 73.6662 12.452C73.5942 12.54 73.5022 12.584 73.3902 12.584C73.3182 12.584 73.2462 12.568 73.1742 12.536C73.1022 12.496 73.0102 12.44 72.8982 12.368C72.6982 12.24 72.5102 12.144 72.3342 12.08C72.1662 12.008 71.9622 11.972 71.7222 11.972C71.1782 11.972 70.7542 12.156 70.4502 12.524C70.1542 12.892 70.0062 13.404 70.0062 14.06C70.0062 14.716 70.1542 15.224 70.4502 15.584C70.7462 15.936 71.1662 16.112 71.7102 16.112C71.9502 16.112 72.1622 16.076 72.3462 16.004C72.5302 15.932 72.7182 15.836 72.9102 15.716C72.9982 15.66 73.0862 15.612 73.1742 15.572C73.2622 15.532 73.3422 15.512 73.4142 15.512C73.5262 15.512 73.6182 15.56 73.6902 15.656C73.7622 15.744 73.7982 15.856 73.7982 15.992C73.7982 16.104 73.7662 16.208 73.7022 16.304C73.6462 16.392 73.5462 16.484 73.4022 16.58C73.1622 16.74 72.8822 16.864 72.5622 16.952C72.2422 17.04 71.9182 17.084 71.5902 17.084ZM76.815 17.06C76.631 17.06 76.483 17.008 76.371 16.904C76.259 16.8 76.203 16.66 76.203 16.484V12.08H74.643C74.499 12.08 74.383 12.036 74.295 11.948C74.207 11.86 74.163 11.748 74.163 11.612C74.163 11.476 74.207 11.364 74.295 11.276C74.383 11.188 74.499 11.144 74.643 11.144H78.975C79.127 11.144 79.247 11.188 79.335 11.276C79.423 11.364 79.467 11.476 79.467 11.612C79.467 11.748 79.423 11.86 79.335 11.948C79.247 12.036 79.127 12.08 78.975 12.08H77.415V16.484C77.415 16.66 77.359 16.8 77.247 16.904C77.143 17.008 76.999 17.06 76.815 17.06ZM82.8156 11C83.5916 11 84.1676 11.196 84.5436 11.588C84.9276 11.98 85.1196 12.576 85.1196 13.376V16.484C85.1196 16.668 85.0676 16.812 84.9636 16.916C84.8596 17.012 84.7156 17.06 84.5316 17.06C84.3556 17.06 84.2156 17.008 84.1116 16.904C84.0076 16.8 83.9556 16.66 83.9556 16.484V16.04C83.8036 16.376 83.5756 16.636 83.2716 16.82C82.9756 16.996 82.6276 17.084 82.2276 17.084C81.8436 17.084 81.4916 17.008 81.1716 16.856C80.8596 16.696 80.6116 16.48 80.4276 16.208C80.2436 15.936 80.1516 15.628 80.1516 15.284C80.1436 14.852 80.2516 14.516 80.4756 14.276C80.6996 14.028 81.0636 13.852 81.5676 13.748C82.0716 13.636 82.7716 13.58 83.6676 13.58H83.9436V13.232C83.9436 12.784 83.8516 12.46 83.6676 12.26C83.4836 12.06 83.1876 11.96 82.7796 11.96C82.4996 11.96 82.2356 11.996 81.9876 12.068C81.7396 12.14 81.4676 12.244 81.1716 12.38C80.9556 12.5 80.8036 12.56 80.7156 12.56C80.5956 12.56 80.4956 12.516 80.4156 12.428C80.3436 12.34 80.3076 12.228 80.3076 12.092C80.3076 11.972 80.3396 11.868 80.4036 11.78C80.4756 11.684 80.5876 11.592 80.7396 11.504C81.0196 11.352 81.3476 11.232 81.7236 11.144C82.0996 11.048 82.4636 11 82.8156 11ZM82.4436 16.184C82.8836 16.184 83.2436 16.036 83.5236 15.74C83.8036 15.436 83.9436 15.048 83.9436 14.576V14.264H83.7276C83.1036 14.264 82.6236 14.292 82.2876 14.348C81.9516 14.404 81.7116 14.5 81.5676 14.636C81.4236 14.764 81.3516 14.952 81.3516 15.2C81.3516 15.488 81.4556 15.724 81.6636 15.908C81.8716 16.092 82.1316 16.184 82.4436 16.184ZM87.3655 17.06C87.1815 17.06 87.0335 17.008 86.9215 16.904C86.8095 16.8 86.7535 16.66 86.7535 16.484V11.6C86.7535 11.424 86.8095 11.284 86.9215 11.18C87.0335 11.076 87.1815 11.024 87.3655 11.024C87.5495 11.024 87.6935 11.076 87.7975 11.18C87.9095 11.284 87.9655 11.424 87.9655 11.6V13.52H90.8455V11.6C90.8455 11.424 90.9015 11.284 91.0135 11.18C91.1255 11.076 91.2735 11.024 91.4575 11.024C91.6415 11.024 91.7855 11.076 91.8895 11.18C92.0015 11.284 92.0575 11.424 92.0575 11.6L92.0695 16.448C92.0695 16.632 92.0135 16.78 91.9015 16.892C91.7895 17.004 91.6415 17.06 91.4575 17.06C91.2735 17.06 91.1255 17.004 91.0135 16.892C90.9015 16.78 90.8455 16.632 90.8455 16.448V14.48H87.9655V16.484C87.9655 16.66 87.9095 16.8 87.7975 16.904C87.6935 17.008 87.5495 17.06 87.3655 17.06ZM96.2707 17.084C95.6947 17.084 95.1867 16.96 94.7467 16.712C94.3147 16.464 93.9787 16.112 93.7387 15.656C93.5067 15.192 93.3907 14.656 93.3907 14.048C93.3907 13.432 93.5067 12.896 93.7387 12.44C93.9787 11.976 94.3147 11.62 94.7467 11.372C95.1867 11.124 95.6947 11 96.2707 11C96.8467 11 97.3507 11.124 97.7827 11.372C98.2227 11.62 98.5587 11.976 98.7907 12.44C99.0307 12.896 99.1507 13.432 99.1507 14.048C99.1507 14.656 99.0307 15.192 98.7907 15.656C98.5587 16.112 98.2227 16.464 97.7827 16.712C97.3507 16.96 96.8467 17.084 96.2707 17.084ZM96.2707 16.124C96.8067 16.124 97.2147 15.948 97.4947 15.596C97.7827 15.244 97.9267 14.728 97.9267 14.048C97.9267 13.376 97.7827 12.864 97.4947 12.512C97.2067 12.152 96.7987 11.972 96.2707 11.972C95.7427 11.972 95.3347 12.152 95.0467 12.512C94.7587 12.864 94.6147 13.376 94.6147 14.048C94.6147 14.728 94.7547 15.244 95.0347 15.596C95.3227 15.948 95.7347 16.124 96.2707 16.124ZM101.1 17C100.908 17 100.756 16.948 100.644 16.844C100.532 16.74 100.476 16.596 100.476 16.412V11.768C100.476 11.584 100.528 11.436 100.632 11.324C100.744 11.204 100.888 11.144 101.064 11.144H103.212C103.86 11.144 104.364 11.272 104.724 11.528C105.092 11.784 105.276 12.156 105.276 12.644C105.276 12.932 105.192 13.2 105.024 13.448C104.856 13.696 104.6 13.876 104.256 13.988C104.624 14.06 104.912 14.216 105.12 14.456C105.328 14.688 105.432 14.988 105.432 15.356C105.432 15.644 105.352 15.916 105.192 16.172C105.032 16.42 104.788 16.62 104.46 16.772C104.132 16.924 103.728 17 103.248 17H101.1ZM103.056 13.616C103.368 13.616 103.616 13.54 103.8 13.388C103.984 13.236 104.076 13.028 104.076 12.764C104.076 12.252 103.724 11.996 103.02 11.996H101.688V13.616H103.056ZM103.08 16.148C103.832 16.148 104.208 15.864 104.208 15.296C104.208 15 104.104 14.78 103.896 14.636C103.688 14.492 103.4 14.42 103.032 14.42H101.688V16.148H103.08ZM110.766 11.456C110.878 11.296 110.986 11.184 111.09 11.12C111.194 11.056 111.334 11.024 111.51 11.024C111.702 11.024 111.854 11.08 111.966 11.192C112.078 11.296 112.134 11.44 112.134 11.624V16.472C112.134 16.648 112.082 16.792 111.978 16.904C111.874 17.008 111.734 17.06 111.558 17.06C111.39 17.06 111.25 17.008 111.138 16.904C111.034 16.792 110.982 16.648 110.982 16.472V12.656L108.102 16.652C107.99 16.812 107.878 16.92 107.766 16.976C107.662 17.032 107.53 17.06 107.37 17.06C107.186 17.06 107.034 17.008 106.914 16.904C106.802 16.792 106.746 16.648 106.746 16.472V11.612C106.746 11.444 106.798 11.304 106.902 11.192C107.014 11.08 107.158 11.024 107.334 11.024C107.502 11.024 107.638 11.08 107.742 11.192C107.854 11.304 107.91 11.444 107.91 11.612V15.392L110.766 11.456ZM115.733 17.06C115.549 17.06 115.401 17.008 115.289 16.904C115.177 16.8 115.121 16.66 115.121 16.484V12.08H113.561C113.417 12.08 113.301 12.036 113.213 11.948C113.125 11.86 113.081 11.748 113.081 11.612C113.081 11.476 113.125 11.364 113.213 11.276C113.301 11.188 113.417 11.144 113.561 11.144H117.893C118.045 11.144 118.165 11.188 118.253 11.276C118.341 11.364 118.385 11.476 118.385 11.612C118.385 11.748 118.341 11.86 118.253 11.948C118.165 12.036 118.045 12.08 117.893 12.08H116.333V16.484C116.333 16.66 116.277 16.8 116.165 16.904C116.061 17.008 115.917 17.06 115.733 17.06ZM123.858 15.524C123.97 15.524 124.062 15.568 124.134 15.656C124.206 15.744 124.242 15.856 124.242 15.992C124.242 16.224 124.098 16.42 123.81 16.58C123.53 16.74 123.222 16.864 122.886 16.952C122.558 17.04 122.242 17.084 121.938 17.084C121.01 17.084 120.278 16.816 119.742 16.28C119.206 15.736 118.938 14.996 118.938 14.06C118.938 13.46 119.054 12.928 119.286 12.464C119.526 12 119.858 11.64 120.282 11.384C120.714 11.128 121.202 11 121.746 11C122.53 11 123.15 11.252 123.606 11.756C124.062 12.26 124.29 12.94 124.29 13.796C124.29 14.116 124.146 14.276 123.858 14.276H120.15C120.23 15.516 120.826 16.136 121.938 16.136C122.234 16.136 122.49 16.096 122.706 16.016C122.922 15.936 123.15 15.832 123.39 15.704C123.414 15.688 123.478 15.656 123.582 15.608C123.694 15.552 123.786 15.524 123.858 15.524ZM121.77 11.888C121.306 11.888 120.934 12.036 120.654 12.332C120.374 12.628 120.206 13.044 120.15 13.58H123.246C123.222 13.036 123.082 12.62 122.826 12.332C122.578 12.036 122.226 11.888 121.77 11.888ZM132.785 11.456C132.897 11.296 133.005 11.184 133.109 11.12C133.213 11.056 133.353 11.024 133.529 11.024C133.721 11.024 133.873 11.08 133.985 11.192C134.097 11.296 134.153 11.44 134.153 11.624V16.472C134.153 16.648 134.101 16.792 133.997 16.904C133.893 17.008 133.753 17.06 133.577 17.06C133.409 17.06 133.269 17.008 133.157 16.904C133.053 16.792 133.001 16.648 133.001 16.472V12.656L130.121 16.652C130.009 16.812 129.897 16.92 129.785 16.976C129.681 17.032 129.549 17.06 129.389 17.06C129.205 17.06 129.053 17.008 128.933 16.904C128.821 16.792 128.765 16.648 128.765 16.472V11.612C128.765 11.444 128.817 11.304 128.921 11.192C129.033 11.08 129.177 11.024 129.353 11.024C129.521 11.024 129.657 11.08 129.761 11.192C129.873 11.304 129.929 11.444 129.929 11.612V15.392L132.785 11.456ZM137.716 17.084C136.9 17.084 136.204 16.912 135.628 16.568C135.42 16.456 135.316 16.3 135.316 16.1C135.316 15.98 135.36 15.88 135.448 15.8C135.536 15.712 135.648 15.668 135.784 15.668C135.88 15.668 135.976 15.692 136.072 15.74C136.32 15.876 136.564 15.976 136.804 16.04C137.052 16.104 137.324 16.136 137.62 16.136C138.012 16.136 138.352 16.06 138.64 15.908C138.928 15.756 139.072 15.524 139.072 15.212C139.072 14.7 138.708 14.444 137.98 14.444H137.128C136.992 14.444 136.88 14.404 136.792 14.324C136.712 14.236 136.672 14.124 136.672 13.988C136.672 13.86 136.716 13.756 136.804 13.676C136.892 13.588 137 13.544 137.128 13.544H137.908C138.244 13.544 138.5 13.472 138.676 13.328C138.86 13.176 138.952 12.98 138.952 12.74C138.952 12.492 138.848 12.304 138.64 12.176C138.432 12.04 138.136 11.972 137.752 11.972C137.44 11.972 137.164 12.004 136.924 12.068C136.692 12.132 136.456 12.228 136.216 12.356C136.12 12.396 136.032 12.416 135.952 12.416C135.824 12.416 135.712 12.372 135.616 12.284C135.528 12.196 135.484 12.096 135.484 11.984C135.484 11.784 135.592 11.632 135.808 11.528C136.44 11.176 137.16 11 137.968 11C138.712 11 139.272 11.144 139.648 11.432C140.032 11.72 140.224 12.104 140.224 12.584C140.224 12.88 140.132 13.152 139.948 13.4C139.764 13.648 139.508 13.828 139.18 13.94C139.948 14.108 140.332 14.56 140.332 15.296C140.332 15.656 140.216 15.972 139.984 16.244C139.752 16.516 139.436 16.724 139.036 16.868C138.636 17.012 138.196 17.084 137.716 17.084Z" fill="#F7F9FF"/>
</svg>
