<svg width="180" height="56" viewBox="0 0 180 56" fill="none" xmlns="http://www.w3.org/2000/svg">
<rect width="180" height="56" rx="12" fill="#0D143B"/>
<path d="M26.5034 16.2123C26.1838 16.5964 26.0225 17.0882 26.0523 17.5873V39.3123C26.0225 39.8115 26.1838 40.3032 26.5034 40.6873L26.572 40.7561L38.7212 28.5972V28.3123L26.572 16.1436L26.5034 16.2123Z" fill="#F7F9FF"/>
<path d="M44.7029 32.6532L40.6826 28.597V28.3121L44.7029 24.2461L44.7912 24.2952L49.6058 27.0353C50.9786 27.8112 50.9786 29.088 49.6058 29.8737L44.8108 32.6041L44.7029 32.6532Z" fill="#F7F9FF"/>
<path d="M43.8402 33.5762L39.7022 29.4316L27.4844 41.6691C28.0616 42.1774 28.9184 42.2021 29.5239 41.728L43.85 33.5762" fill="#F7F9FF"/>
<path d="M43.8403 23.3234L29.5142 15.1716C28.9087 14.6975 28.0519 14.7223 27.4746 15.2306L39.7023 27.4681L43.8403 23.3234Z" fill="#F7F9FF"/>
<path fill-rule="evenodd" clip-rule="evenodd" d="M67.8273 32.3659V34.3459H72.5928C72.5181 35.2785 72.1293 36.1585 71.4897 36.8429C70.5256 37.8222 69.1914 38.3496 67.8163 38.2949C64.8919 38.2949 62.5212 35.931 62.5212 33.0149C62.5212 30.0989 64.8919 27.7349 67.8163 27.7349C69.1596 27.7131 70.4569 28.2234 71.4235 29.1539L72.8245 27.7569C71.5061 26.4258 69.7034 25.6837 67.8273 25.6999C65.1566 25.5963 62.643 26.958 61.2767 29.2486C59.9104 31.5392 59.9104 34.3916 61.2767 36.6823C62.643 38.9729 65.1566 40.3346 67.8273 40.2309C69.7377 40.317 71.592 39.575 72.9127 38.1959C74.0685 36.9297 74.6855 35.2653 74.6336 33.5539C74.6372 33.137 74.6002 32.7207 74.5233 32.3109L67.8273 32.3659ZM80.061 30.9249C77.4732 30.931 75.3797 33.0268 75.3838 35.6073C75.3878 38.1877 77.4879 40.2769 80.0757 40.2749C82.6636 40.2729 84.7604 38.1804 84.7604 35.5999C84.7786 34.3507 84.2874 33.1477 83.3994 32.2664C82.5114 31.3851 81.3027 30.901 80.05 30.9249H80.061ZM85.665 35.6145C85.6569 33.0355 87.7448 30.9371 90.3312 30.9249C91.5839 30.901 92.7926 31.3851 93.6806 32.2664C94.5686 33.1477 95.0598 34.3507 95.0416 35.5999C95.0416 38.179 92.947 40.2709 90.3606 40.2749C87.7742 40.2789 85.6731 38.1936 85.665 35.6145ZM87.5646 36.8302C88.0683 37.8817 89.1655 38.5192 90.3312 38.4379C91.0629 38.421 91.7567 38.1101 92.2552 37.5757C92.7537 37.0414 93.0146 36.3289 92.9787 35.5999C92.9759 34.4346 92.259 33.3895 91.1709 32.9644C90.0828 32.5393 88.8447 32.8207 88.0488 33.6739C87.2528 34.5271 87.0608 35.7788 87.5646 36.8302ZM77.287 36.8386C77.7943 37.8894 78.8947 38.5238 80.061 38.4379H80.05C80.7817 38.421 81.4755 38.1101 81.974 37.5757C82.4725 37.0414 82.7334 36.3289 82.6975 35.5999C82.6944 34.4337 81.976 33.3882 80.8866 32.964C79.7971 32.5398 78.5584 32.8235 77.7636 33.679C76.9688 34.5345 76.7797 35.7878 77.287 36.8386ZM113.795 30.9249C115.624 30.9921 117.221 32.1781 117.81 33.9059L118.042 34.4009L111.765 36.9859C112.158 37.8794 113.06 38.4421 114.038 38.4049C114.982 38.4073 115.857 37.9143 116.343 37.1069L117.943 38.2069C117.072 39.5065 115.605 40.2834 114.038 40.2749C112.792 40.2931 111.592 39.8054 110.714 38.9237C109.836 38.042 109.355 36.8422 109.382 35.5999C109.306 34.3861 109.737 33.195 110.573 32.3093C111.409 31.4237 112.575 30.9226 113.795 30.9249ZM111.412 35.4679C111.367 34.7806 111.601 34.1041 112.062 33.5909C112.522 33.0777 113.171 32.771 113.861 32.7399C114.588 32.6921 115.274 33.0817 115.604 33.7299L111.412 35.4679ZM108.378 39.9999H106.316V26.2499H108.378V39.9999ZM102.94 31.9699H102.863C102.234 31.2689 101.335 30.8687 100.392 30.8699C97.8878 30.991 95.9201 33.0507 95.9201 35.5504C95.9201 38.0502 97.8878 40.1099 100.392 40.2309C101.338 40.2468 102.243 39.844 102.863 39.1309H102.929V39.8019C102.929 41.5949 101.969 42.5519 100.425 42.5519C99.3728 42.5274 98.4401 41.8711 98.0642 40.8909L96.2661 41.6389C96.9585 43.3184 98.6039 44.4108 100.425 44.3999C102.841 44.3999 104.837 42.9809 104.837 39.5269V31.1999H102.94V31.9699ZM100.576 38.4376L100.579 38.4379H100.568L100.576 38.4376ZM102.435 37.5555C101.961 38.0897 101.29 38.4082 100.576 38.4376C99.1026 38.3064 97.973 37.0753 97.973 35.5999C97.973 34.1234 99.1043 32.8916 100.579 32.7619C101.292 32.7984 101.96 33.1203 102.431 33.6546C102.903 34.1889 103.138 34.8903 103.083 35.5999C103.144 36.3128 102.91 37.0194 102.435 37.5555ZM122.543 26.2499V39.9999H124.606V34.7859H127.485C129.087 34.9007 130.62 34.1133 131.456 32.7454C132.293 31.3775 132.293 29.6584 131.456 28.2905C130.62 26.9226 129.087 26.1351 127.485 26.2499H122.543ZM124.595 32.8499H127.474L127.518 32.8829C128.825 32.8829 129.884 31.8265 129.884 30.5234C129.884 29.2203 128.825 28.1639 127.518 28.1639H124.595V32.8499ZM140.193 30.8699C138.658 30.7785 137.215 31.6037 136.519 32.9709L138.351 33.7299C138.72 33.052 139.455 32.6551 140.226 32.7179C140.755 32.6563 141.287 32.8092 141.701 33.1422C142.116 33.4752 142.38 33.9605 142.432 34.4889V34.6319C141.77 34.2821 141.031 34.1008 140.281 34.1039C138.307 34.1039 136.31 35.2039 136.31 37.1949C136.349 38.0526 136.735 38.8579 137.379 39.4277C138.023 39.9975 138.871 40.2832 139.73 40.2199C140.788 40.2957 141.803 39.7895 142.377 38.8999H142.443V39.9999H144.429V34.7089C144.429 32.2999 142.598 30.9029 140.248 30.9029L140.193 30.8699ZM138.329 37.2389C138.329 38.0639 139.266 38.4049 139.939 38.4049L139.994 38.4379C141.237 38.4077 142.268 37.4693 142.41 36.2379C141.838 35.9194 141.19 35.7598 140.535 35.7759C139.498 35.7759 138.329 36.1389 138.329 37.2389ZM151.665 31.1999L149.305 37.1619H149.239L146.79 31.1999H144.583L148.257 39.5379L146.161 44.1689H148.312L153.96 31.1999H151.665ZM135.185 39.9999H133.122V26.2499H135.185V39.9999Z" fill="#F7F9FF"/>
<path opacity="0.4" d="M66.504 8.828C66.632 8.596 66.808 8.48 67.032 8.48C67.184 8.48 67.316 8.532 67.428 8.636C67.548 8.74 67.608 8.872 67.608 9.032C67.608 9.136 67.58 9.24 67.524 9.344L63.768 16.7C63.64 16.94 63.46 17.06 63.228 17.06C63.076 17.06 62.94 17.008 62.82 16.904C62.708 16.792 62.652 16.656 62.652 16.496C62.652 16.408 62.676 16.312 62.724 16.208L63.624 14.456L60.48 9.368C60.408 9.248 60.372 9.132 60.372 9.02C60.372 8.868 60.428 8.74 60.54 8.636C60.66 8.524 60.792 8.468 60.936 8.468C61.144 8.468 61.312 8.572 61.44 8.78L64.224 13.292L66.504 8.828ZM70.5902 17.084C70.0222 17.084 69.5222 16.96 69.0902 16.712C68.6662 16.464 68.3342 16.112 68.0942 15.656C67.8622 15.2 67.7462 14.672 67.7462 14.072C67.7462 13.464 67.8662 12.928 68.1062 12.464C68.3542 12 68.6982 11.64 69.1382 11.384C69.5782 11.128 70.0822 11 70.6502 11C70.9542 11 71.2582 11.044 71.5622 11.132C71.8742 11.22 72.1502 11.34 72.3902 11.492C72.6462 11.668 72.7742 11.872 72.7742 12.104C72.7742 12.24 72.7382 12.356 72.6662 12.452C72.5942 12.54 72.5022 12.584 72.3902 12.584C72.3182 12.584 72.2462 12.568 72.1742 12.536C72.1022 12.496 72.0102 12.44 71.8982 12.368C71.6982 12.24 71.5102 12.144 71.3342 12.08C71.1662 12.008 70.9622 11.972 70.7222 11.972C70.1782 11.972 69.7542 12.156 69.4502 12.524C69.1542 12.892 69.0062 13.404 69.0062 14.06C69.0062 14.716 69.1542 15.224 69.4502 15.584C69.7462 15.936 70.1662 16.112 70.7102 16.112C70.9502 16.112 71.1622 16.076 71.3462 16.004C71.5302 15.932 71.7182 15.836 71.9102 15.716C71.9982 15.66 72.0862 15.612 72.1742 15.572C72.2622 15.532 72.3422 15.512 72.4142 15.512C72.5262 15.512 72.6182 15.56 72.6902 15.656C72.7622 15.744 72.7982 15.856 72.7982 15.992C72.7982 16.104 72.7662 16.208 72.7022 16.304C72.6462 16.392 72.5462 16.484 72.4022 16.58C72.1622 16.74 71.8822 16.864 71.5622 16.952C71.2422 17.04 70.9182 17.084 70.5902 17.084ZM75.815 17.06C75.631 17.06 75.483 17.008 75.371 16.904C75.259 16.8 75.203 16.66 75.203 16.484V12.08H73.643C73.499 12.08 73.383 12.036 73.295 11.948C73.207 11.86 73.163 11.748 73.163 11.612C73.163 11.476 73.207 11.364 73.295 11.276C73.383 11.188 73.499 11.144 73.643 11.144H77.975C78.127 11.144 78.247 11.188 78.335 11.276C78.423 11.364 78.467 11.476 78.467 11.612C78.467 11.748 78.423 11.86 78.335 11.948C78.247 12.036 78.127 12.08 77.975 12.08H76.415V16.484C76.415 16.66 76.359 16.8 76.247 16.904C76.143 17.008 75.999 17.06 75.815 17.06ZM81.8156 11C82.5916 11 83.1676 11.196 83.5436 11.588C83.9276 11.98 84.1196 12.576 84.1196 13.376V16.484C84.1196 16.668 84.0676 16.812 83.9636 16.916C83.8596 17.012 83.7156 17.06 83.5316 17.06C83.3556 17.06 83.2156 17.008 83.1116 16.904C83.0076 16.8 82.9556 16.66 82.9556 16.484V16.04C82.8036 16.376 82.5756 16.636 82.2716 16.82C81.9756 16.996 81.6276 17.084 81.2276 17.084C80.8436 17.084 80.4916 17.008 80.1716 16.856C79.8596 16.696 79.6116 16.48 79.4276 16.208C79.2436 15.936 79.1516 15.628 79.1516 15.284C79.1436 14.852 79.2516 14.516 79.4756 14.276C79.6996 14.028 80.0636 13.852 80.5676 13.748C81.0716 13.636 81.7716 13.58 82.6676 13.58H82.9436V13.232C82.9436 12.784 82.8516 12.46 82.6676 12.26C82.4836 12.06 82.1876 11.96 81.7796 11.96C81.4996 11.96 81.2356 11.996 80.9876 12.068C80.7396 12.14 80.4676 12.244 80.1716 12.38C79.9556 12.5 79.8036 12.56 79.7156 12.56C79.5956 12.56 79.4956 12.516 79.4156 12.428C79.3436 12.34 79.3076 12.228 79.3076 12.092C79.3076 11.972 79.3396 11.868 79.4036 11.78C79.4756 11.684 79.5876 11.592 79.7396 11.504C80.0196 11.352 80.3476 11.232 80.7236 11.144C81.0996 11.048 81.4636 11 81.8156 11ZM81.4436 16.184C81.8836 16.184 82.2436 16.036 82.5236 15.74C82.8036 15.436 82.9436 15.048 82.9436 14.576V14.264H82.7276C82.1036 14.264 81.6236 14.292 81.2876 14.348C80.9516 14.404 80.7116 14.5 80.5676 14.636C80.4236 14.764 80.3516 14.952 80.3516 15.2C80.3516 15.488 80.4556 15.724 80.6636 15.908C80.8716 16.092 81.1316 16.184 81.4436 16.184ZM86.3655 17.06C86.1815 17.06 86.0335 17.008 85.9215 16.904C85.8095 16.8 85.7535 16.66 85.7535 16.484V11.6C85.7535 11.424 85.8095 11.284 85.9215 11.18C86.0335 11.076 86.1815 11.024 86.3655 11.024C86.5495 11.024 86.6935 11.076 86.7975 11.18C86.9095 11.284 86.9655 11.424 86.9655 11.6V13.52H89.8455V11.6C89.8455 11.424 89.9015 11.284 90.0135 11.18C90.1255 11.076 90.2735 11.024 90.4575 11.024C90.6415 11.024 90.7855 11.076 90.8895 11.18C91.0015 11.284 91.0575 11.424 91.0575 11.6L91.0695 16.448C91.0695 16.632 91.0135 16.78 90.9015 16.892C90.7895 17.004 90.6415 17.06 90.4575 17.06C90.2735 17.06 90.1255 17.004 90.0135 16.892C89.9015 16.78 89.8455 16.632 89.8455 16.448V14.48H86.9655V16.484C86.9655 16.66 86.9095 16.8 86.7975 16.904C86.6935 17.008 86.5495 17.06 86.3655 17.06ZM95.2707 17.084C94.6947 17.084 94.1867 16.96 93.7467 16.712C93.3147 16.464 92.9787 16.112 92.7387 15.656C92.5067 15.192 92.3907 14.656 92.3907 14.048C92.3907 13.432 92.5067 12.896 92.7387 12.44C92.9787 11.976 93.3147 11.62 93.7467 11.372C94.1867 11.124 94.6947 11 95.2707 11C95.8467 11 96.3507 11.124 96.7827 11.372C97.2227 11.62 97.5587 11.976 97.7907 12.44C98.0307 12.896 98.1507 13.432 98.1507 14.048C98.1507 14.656 98.0307 15.192 97.7907 15.656C97.5587 16.112 97.2227 16.464 96.7827 16.712C96.3507 16.96 95.8467 17.084 95.2707 17.084ZM95.2707 16.124C95.8067 16.124 96.2147 15.948 96.4947 15.596C96.7827 15.244 96.9267 14.728 96.9267 14.048C96.9267 13.376 96.7827 12.864 96.4947 12.512C96.2067 12.152 95.7987 11.972 95.2707 11.972C94.7427 11.972 94.3347 12.152 94.0467 12.512C93.7587 12.864 93.6147 13.376 93.6147 14.048C93.6147 14.728 93.7547 15.244 94.0347 15.596C94.3227 15.948 94.7347 16.124 95.2707 16.124ZM100.1 17C99.9082 17 99.7562 16.948 99.6442 16.844C99.5322 16.74 99.4762 16.596 99.4762 16.412V11.768C99.4762 11.584 99.5282 11.436 99.6322 11.324C99.7442 11.204 99.8882 11.144 100.064 11.144H102.212C102.86 11.144 103.364 11.272 103.724 11.528C104.092 11.784 104.276 12.156 104.276 12.644C104.276 12.932 104.192 13.2 104.024 13.448C103.856 13.696 103.6 13.876 103.256 13.988C103.624 14.06 103.912 14.216 104.12 14.456C104.328 14.688 104.432 14.988 104.432 15.356C104.432 15.644 104.352 15.916 104.192 16.172C104.032 16.42 103.788 16.62 103.46 16.772C103.132 16.924 102.728 17 102.248 17H100.1ZM102.056 13.616C102.368 13.616 102.616 13.54 102.8 13.388C102.984 13.236 103.076 13.028 103.076 12.764C103.076 12.252 102.724 11.996 102.02 11.996H100.688V13.616H102.056ZM102.08 16.148C102.832 16.148 103.208 15.864 103.208 15.296C103.208 15 103.104 14.78 102.896 14.636C102.688 14.492 102.4 14.42 102.032 14.42H100.688V16.148H102.08ZM109.766 11.456C109.878 11.296 109.986 11.184 110.09 11.12C110.194 11.056 110.334 11.024 110.51 11.024C110.702 11.024 110.854 11.08 110.966 11.192C111.078 11.296 111.134 11.44 111.134 11.624V16.472C111.134 16.648 111.082 16.792 110.978 16.904C110.874 17.008 110.734 17.06 110.558 17.06C110.39 17.06 110.25 17.008 110.138 16.904C110.034 16.792 109.982 16.648 109.982 16.472V12.656L107.102 16.652C106.99 16.812 106.878 16.92 106.766 16.976C106.662 17.032 106.53 17.06 106.37 17.06C106.186 17.06 106.034 17.008 105.914 16.904C105.802 16.792 105.746 16.648 105.746 16.472V11.612C105.746 11.444 105.798 11.304 105.902 11.192C106.014 11.08 106.158 11.024 106.334 11.024C106.502 11.024 106.638 11.08 106.742 11.192C106.854 11.304 106.91 11.444 106.91 11.612V15.392L109.766 11.456ZM114.733 17.06C114.549 17.06 114.401 17.008 114.289 16.904C114.177 16.8 114.121 16.66 114.121 16.484V12.08H112.561C112.417 12.08 112.301 12.036 112.213 11.948C112.125 11.86 112.081 11.748 112.081 11.612C112.081 11.476 112.125 11.364 112.213 11.276C112.301 11.188 112.417 11.144 112.561 11.144H116.893C117.045 11.144 117.165 11.188 117.253 11.276C117.341 11.364 117.385 11.476 117.385 11.612C117.385 11.748 117.341 11.86 117.253 11.948C117.165 12.036 117.045 12.08 116.893 12.08H115.333V16.484C115.333 16.66 115.277 16.8 115.165 16.904C115.061 17.008 114.917 17.06 114.733 17.06ZM122.858 15.524C122.97 15.524 123.062 15.568 123.134 15.656C123.206 15.744 123.242 15.856 123.242 15.992C123.242 16.224 123.098 16.42 122.81 16.58C122.53 16.74 122.222 16.864 121.886 16.952C121.558 17.04 121.242 17.084 120.938 17.084C120.01 17.084 119.278 16.816 118.742 16.28C118.206 15.736 117.938 14.996 117.938 14.06C117.938 13.46 118.054 12.928 118.286 12.464C118.526 12 118.858 11.64 119.282 11.384C119.714 11.128 120.202 11 120.746 11C121.53 11 122.15 11.252 122.606 11.756C123.062 12.26 123.29 12.94 123.29 13.796C123.29 14.116 123.146 14.276 122.858 14.276H119.15C119.23 15.516 119.826 16.136 120.938 16.136C121.234 16.136 121.49 16.096 121.706 16.016C121.922 15.936 122.15 15.832 122.39 15.704C122.414 15.688 122.478 15.656 122.582 15.608C122.694 15.552 122.786 15.524 122.858 15.524ZM120.77 11.888C120.306 11.888 119.934 12.036 119.654 12.332C119.374 12.628 119.206 13.044 119.15 13.58H122.246C122.222 13.036 122.082 12.62 121.826 12.332C121.578 12.036 121.226 11.888 120.77 11.888ZM131.785 11.456C131.897 11.296 132.005 11.184 132.109 11.12C132.213 11.056 132.353 11.024 132.529 11.024C132.721 11.024 132.873 11.08 132.985 11.192C133.097 11.296 133.153 11.44 133.153 11.624V16.472C133.153 16.648 133.101 16.792 132.997 16.904C132.893 17.008 132.753 17.06 132.577 17.06C132.409 17.06 132.269 17.008 132.157 16.904C132.053 16.792 132.001 16.648 132.001 16.472V12.656L129.121 16.652C129.009 16.812 128.897 16.92 128.785 16.976C128.681 17.032 128.549 17.06 128.389 17.06C128.205 17.06 128.053 17.008 127.933 16.904C127.821 16.792 127.765 16.648 127.765 16.472V11.612C127.765 11.444 127.817 11.304 127.921 11.192C128.033 11.08 128.177 11.024 128.353 11.024C128.521 11.024 128.657 11.08 128.761 11.192C128.873 11.304 128.929 11.444 128.929 11.612V15.392L131.785 11.456ZM136.716 17.084C135.9 17.084 135.204 16.912 134.628 16.568C134.42 16.456 134.316 16.3 134.316 16.1C134.316 15.98 134.36 15.88 134.448 15.8C134.536 15.712 134.648 15.668 134.784 15.668C134.88 15.668 134.976 15.692 135.072 15.74C135.32 15.876 135.564 15.976 135.804 16.04C136.052 16.104 136.324 16.136 136.62 16.136C137.012 16.136 137.352 16.06 137.64 15.908C137.928 15.756 138.072 15.524 138.072 15.212C138.072 14.7 137.708 14.444 136.98 14.444H136.128C135.992 14.444 135.88 14.404 135.792 14.324C135.712 14.236 135.672 14.124 135.672 13.988C135.672 13.86 135.716 13.756 135.804 13.676C135.892 13.588 136 13.544 136.128 13.544H136.908C137.244 13.544 137.5 13.472 137.676 13.328C137.86 13.176 137.952 12.98 137.952 12.74C137.952 12.492 137.848 12.304 137.64 12.176C137.432 12.04 137.136 11.972 136.752 11.972C136.44 11.972 136.164 12.004 135.924 12.068C135.692 12.132 135.456 12.228 135.216 12.356C135.12 12.396 135.032 12.416 134.952 12.416C134.824 12.416 134.712 12.372 134.616 12.284C134.528 12.196 134.484 12.096 134.484 11.984C134.484 11.784 134.592 11.632 134.808 11.528C135.44 11.176 136.16 11 136.968 11C137.712 11 138.272 11.144 138.648 11.432C139.032 11.72 139.224 12.104 139.224 12.584C139.224 12.88 139.132 13.152 138.948 13.4C138.764 13.648 138.508 13.828 138.18 13.94C138.948 14.108 139.332 14.56 139.332 15.296C139.332 15.656 139.216 15.972 138.984 16.244C138.752 16.516 138.436 16.724 138.036 16.868C137.636 17.012 137.196 17.084 136.716 17.084Z" fill="#F7F9FF"/>
</svg>
