<svg width="24" height="24" viewBox="0 0 24 24" fill="none" xmlns="http://www.w3.org/2000/svg">
<path d="M16.3103 4C14.5784 4 13.0414 4.67403 12 5.83256C10.9586 4.67403 9.42155 4 7.68966 4C6.18123 4.0018 4.7351 4.59342 3.66848 5.64508C2.60186 6.69674 2.00183 8.12259 2 9.60987C2 15.7586 11.1216 20.6715 11.5095 20.878C11.6602 20.9581 11.8288 21 12 21C12.1712 21 12.3398 20.9581 12.4905 20.878C12.8784 20.6715 22 15.7586 22 9.60987C21.9982 8.12259 21.3981 6.69674 20.3315 5.64508C19.2649 4.59342 17.8188 4.0018 16.3103 4ZM15.8371 16.1003C14.6364 17.1048 13.353 18.009 12 18.8032C10.647 18.009 9.36356 17.1048 8.16293 16.1003C6.29483 14.5202 4.06897 12.1105 4.06897 9.60987C4.06897 8.66307 4.45043 7.75504 5.12944 7.08555C5.80845 6.41607 6.72939 6.03995 7.68966 6.03995C9.22414 6.03995 10.5086 6.83893 11.0422 8.1258C11.1199 8.3134 11.2525 8.47394 11.4231 8.58694C11.5936 8.69994 11.7945 8.7603 12 8.7603C12.2055 8.7603 12.4064 8.69994 12.5769 8.58694C12.7475 8.47394 12.8801 8.3134 12.9578 8.1258C13.4914 6.83893 14.7759 6.03995 16.3103 6.03995C17.2706 6.03995 18.1915 6.41607 18.8706 7.08555C19.5496 7.75504 19.931 8.66307 19.931 9.60987C19.931 12.1105 17.7052 14.5202 15.8371 16.1003Z" fill="#F7F9FF"/>
</svg>
