<svg width="36" height="19" viewBox="0 0 36 19" fill="none" xmlns="http://www.w3.org/2000/svg">
<g opacity="0.9" clip-path="url(#clip0_2540_2296)">
<path fill-rule="evenodd" clip-rule="evenodd" d="M34.5544 0.5C35.3094 0.622969 35.9023 1.25458 36 2.04704V16.9312C35.8911 17.8162 35.1642 18.5 34.2839 18.5H1.7305C0.774469 18.5 0 17.6945 0 16.7008V2.27683C0 1.37941 0.632974 0.634769 1.46003 0.5H34.5544ZM28.641 13.4216C28.8151 13.4216 29.0455 13.3515 29.098 13.213C29.1331 13.1204 29.1594 12.7869 29.1776 12.2125V9.41709C29.1776 8.95565 29.1475 8.65444 29.088 8.51346C29.0279 8.37248 28.7944 8.3023 28.6203 8.3023C28.45 8.3023 28.3399 8.36441 28.2898 8.48675C28.2391 8.61034 28.214 8.92025 28.214 9.41709V12.3C28.214 12.7795 28.2422 13.0857 28.2998 13.2198C28.3574 13.3546 28.4707 13.4216 28.641 13.4216ZM28.0337 14.8594H25.4617V3.95058H28.214V7.49928C28.4419 7.23781 28.6961 7.0428 28.976 6.91424C29.2564 6.78569 29.6772 6.72048 30.0059 6.72048C30.384 6.72048 30.7121 6.77886 30.9901 6.89561C31.2681 7.01237 31.4803 7.17571 31.6262 7.38625C31.7721 7.59678 31.8597 7.80235 31.8891 8.00419C31.9186 8.20604 31.9336 8.63581 31.9336 9.29412V12.3547C31.9336 13.0093 31.8891 13.4962 31.8002 13.8166C31.7113 14.1365 31.5022 14.4147 31.1742 14.6495C30.8455 14.8848 30.456 15.0022 30.0046 15.0022C29.6803 15.0022 29.2615 14.9327 28.9816 14.7929C28.7005 14.6538 28.4444 14.4439 28.2115 14.1644L28.2029 14.1981C28.1808 14.2851 28.1246 14.5055 28.0337 14.8594ZM12.4843 8.37907L12.5969 9.14196L13.2587 4.0456H16.9908V14.9544H14.4964L14.4871 7.59119L13.4884 14.9544H11.706L10.6529 7.75143L10.6441 14.9544H8.14167V4.0456H11.8456C11.9545 4.7064 12.0685 5.48085 12.1881 6.37082C12.2105 6.52483 12.3094 7.19449 12.4843 8.37907ZM7.19878 4.11702H4.34194V15.0258H7.19878V4.11702ZM21.7071 6.31493C21.7384 6.45404 21.7547 6.76954 21.7547 7.26266V11.492C21.7547 12.218 21.7071 12.6627 21.6126 12.8267C21.5174 12.9906 21.2645 13.072 20.8544 13.072V5.91124C21.1655 5.91124 21.3778 5.94416 21.4905 6.00875C21.6032 6.07396 21.6758 6.17581 21.7071 6.31493ZM22.9975 14.8432C23.3374 14.7693 23.6229 14.6389 23.8546 14.4532C24.0856 14.2669 24.2478 14.0092 24.3404 13.6794C24.4337 13.3502 24.4888 12.6963 24.4888 11.7181V7.88744C24.4888 6.85524 24.4481 6.16339 24.3849 5.81187C24.321 5.45974 24.1626 5.13989 23.909 4.85297C23.6549 4.56604 23.2842 4.35985 22.7971 4.2344C22.3094 4.10895 21.5143 4.0456 20.1312 4.0456H18V14.9544H21.461C22.2587 14.9296 22.7708 14.8929 22.9975 14.8432Z" fill="#F7F9FF"/>
</g>
<defs>
<clipPath id="clip0_2540_2296">
<rect width="36" height="18" fill="white" transform="translate(0 0.5)"/>
</clipPath>
</defs>
</svg>
