<svg width="18" height="18" viewBox="0 0 18 18" fill="none" xmlns="http://www.w3.org/2000/svg">
<path d="M9 0C4.02948 0 0 4.02948 0 9C0 13.9705 4.02948 18 9 18C13.9705 18 18 13.9705 18 9C18 4.02948 13.9705 0 9 0ZM11.1679 2.14416C11.6236 2.14416 12.0691 2.27929 12.448 2.53245C12.8268 2.78562 13.1222 3.14546 13.2965 3.56646C13.4709 3.98746 13.5165 4.45072 13.4276 4.89765C13.3387 5.34458 13.1193 5.75511 12.7971 6.07733C12.4749 6.39955 12.0643 6.61899 11.6174 6.70789C11.1705 6.79679 10.7072 6.75116 10.2862 6.57678C9.86522 6.40239 9.50538 6.10708 9.25221 5.72819C8.99905 5.3493 8.86392 4.90385 8.86392 4.44816C8.86392 3.8371 9.10666 3.25107 9.53875 2.81899C9.97083 2.3869 10.5569 2.14416 11.1679 2.14416ZM9 7.758C9.24564 7.758 9.48577 7.83084 9.69002 7.96731C9.89426 8.10379 10.0535 8.29776 10.1475 8.52471C10.2415 8.75165 10.2661 9.00138 10.2181 9.2423C10.1702 9.48323 10.0519 9.70453 9.87823 9.87823C9.70453 10.0519 9.48323 10.1702 9.2423 10.2181C9.00138 10.2661 8.75165 10.2415 8.52471 10.1475C8.29776 10.0535 8.10379 9.89426 7.96731 9.69002C7.83084 9.48577 7.758 9.24564 7.758 9C7.758 8.6706 7.88885 8.35469 8.12177 8.12177C8.35469 7.88885 8.6706 7.758 9 7.758ZM4.45068 13.6721C3.99499 13.6721 3.54954 13.537 3.17065 13.2838C2.79176 13.0306 2.49645 12.6708 2.32206 12.2498C2.14768 11.8288 2.10205 11.3655 2.19095 10.9186C2.27985 10.4717 2.49929 10.0611 2.82151 9.73891C3.14373 9.41669 3.55426 9.19725 4.00119 9.10835C4.44812 9.01945 4.91138 9.06508 5.33238 9.23946C5.75338 9.41385 6.11322 9.70916 6.36639 10.088C6.61955 10.4669 6.75468 10.9124 6.75468 11.3681C6.75468 11.9791 6.51194 12.5652 6.07985 12.9973C5.64777 13.4293 5.06174 13.6721 4.45068 13.6721ZM5.33196 7.82676C4.87627 7.82676 4.43082 7.69163 4.05193 7.43847C3.67304 7.1853 3.37773 6.82546 3.20334 6.40446C3.02896 5.98346 2.98333 5.5202 3.07223 5.07327C3.16113 4.62634 3.38057 4.21581 3.70279 3.89359C4.02501 3.57137 4.43554 3.35193 4.88247 3.26303C5.3294 3.17413 5.79266 3.21976 6.21366 3.39414C6.63466 3.56853 6.9945 3.86384 7.24767 4.24273C7.50083 4.62162 7.63596 5.06707 7.63596 5.52276C7.63596 6.13382 7.39322 6.71985 6.96113 7.15193C6.52905 7.58402 5.94302 7.82676 5.33196 7.82676ZM9.81216 16.3253C9.35647 16.3253 8.91102 16.1902 8.53213 15.937C8.15324 15.6838 7.85793 15.324 7.68354 14.903C7.50916 14.482 7.46353 14.0187 7.55243 13.5718C7.64133 13.1249 7.86077 12.7143 8.18299 12.3921C8.50521 12.0699 8.91574 11.8505 9.36267 11.7615C9.8096 11.6727 10.2729 11.7183 10.6939 11.8927C11.1149 12.067 11.4747 12.3624 11.7279 12.7412C11.981 13.1201 12.1162 13.5656 12.1162 14.0213C12.1162 14.6323 11.8734 15.2184 11.4413 15.6505C11.0092 16.0825 10.4232 16.3253 9.81216 16.3253ZM13.9788 12.06C13.5231 12.06 13.0777 11.9249 12.6988 11.6717C12.3199 11.4185 12.0246 11.0587 11.8502 10.6377C11.6758 10.2167 11.6302 9.75344 11.7191 9.30651C11.808 8.85958 12.0274 8.44905 12.3496 8.12683C12.6718 7.80461 13.0824 7.58517 13.5293 7.49627C13.9762 7.40737 14.4395 7.453 14.8605 7.62738C15.2815 7.80177 15.6413 8.09708 15.8945 8.47597C16.1477 8.85486 16.2828 9.30031 16.2828 9.756C16.2828 10.3671 16.0401 10.9531 15.608 11.3852C15.1759 11.8173 14.5899 12.06 13.9788 12.06Z" fill="#F7F9FF"/>
</svg>
