<svg width="32" height="32" viewBox="0 0 32 32" fill="none" xmlns="http://www.w3.org/2000/svg">
<path d="M21.4351 17.8482L20.8277 18.4519C20.8277 18.4519 19.3843 19.8872 15.4443 15.9695C11.5043 12.0519 12.9477 10.6167 12.9477 10.6167L13.3301 10.2364C14.2723 9.29968 14.3611 7.79577 13.5391 6.69787L11.8578 4.452C10.8405 3.09312 8.87476 2.91361 7.70875 4.073L5.61595 6.15392C5.03779 6.7288 4.65035 7.47401 4.69733 8.30071C4.81753 10.4157 5.77443 14.9662 11.114 20.2754C16.7763 25.9055 22.0892 26.1292 24.2619 25.9267C24.9491 25.8627 25.5467 25.5127 26.0283 25.0338L27.9224 23.1506C29.2009 21.8792 28.8404 19.6998 27.2045 18.8106L24.6572 17.4258C23.5831 16.8419 22.2745 17.0134 21.4351 17.8482Z" fill="#F7F9FF"/>
</svg>
