<svg width="97" height="14" viewBox="0 0 97 14" fill="none" xmlns="http://www.w3.org/2000/svg">
<path d="M23.284 1.66432C22.4635 0.976742 21.3336 0.632953 19.8943 0.632953H15.1192C14.9846 0.632953 14.877 0.674208 14.8098 0.756717C14.7425 0.839226 14.6887 0.949239 14.6887 1.08675V12.9406C14.6887 13.0644 14.7291 13.1606 14.8098 13.2431C14.8905 13.3256 14.9981 13.3669 15.1057 13.3669H16.814C16.9485 13.3669 17.0561 13.3256 17.1368 13.2431C17.2175 13.1606 17.2579 13.0644 17.2579 12.9268V8.66386H19.8809C21.3201 8.66386 22.45 8.32007 23.2706 7.64624C24.0911 6.97242 24.4946 5.9823 24.4946 4.67591C24.5081 3.35576 24.1045 2.3519 23.284 1.66432ZM21.3874 6.13357C21.0242 6.46361 20.4996 6.62863 19.8136 6.62863H17.2444V2.66818H19.8136C20.5265 2.66818 21.0511 2.84695 21.4143 3.19074C21.7775 3.53453 21.9389 4.02959 21.9389 4.66216C21.9254 5.30848 21.7506 5.80353 21.3874 6.13357ZM34.9596 8.1413C35.7129 7.88002 36.2913 7.43997 36.7082 6.8349C37.1252 6.22983 37.327 5.48725 37.327 4.60715C37.327 3.32826 36.91 2.3519 36.0895 1.65057C35.269 0.96299 34.1256 0.619202 32.6595 0.619202H28.0457C27.9112 0.619202 27.8036 0.660456 27.7363 0.742966C27.6691 0.825475 27.6153 0.935487 27.6153 1.073V12.9268C27.6153 13.0506 27.6556 13.1469 27.7363 13.2294C27.817 13.3119 27.9246 13.3531 28.0323 13.3531H29.6733C29.8078 13.3531 29.9154 13.3119 29.9961 13.2294C30.0768 13.1469 30.1172 13.0368 30.1172 12.9268V8.5676H32.5518L34.8385 12.8856C34.9192 13.0368 35.0134 13.1469 35.121 13.2431C35.2286 13.3394 35.3766 13.3806 35.5649 13.3806H37.2059C37.3001 13.3806 37.3808 13.3394 37.4615 13.2706C37.5422 13.2019 37.5826 13.1056 37.5826 12.9956C37.5826 12.9406 37.5691 12.8718 37.5288 12.7893L34.9596 8.1413ZM34.2198 6.00981C33.8566 6.32609 33.332 6.49111 32.6191 6.49111H30.1441V2.66818H32.6191C33.332 2.66818 33.8701 2.8332 34.2198 3.16324C34.5695 3.49327 34.7578 3.97458 34.7578 4.5934C34.7444 5.21222 34.5695 5.67977 34.2198 6.00981ZM49.1775 11.2629H43.1917V7.96253H48.6394C48.7739 7.96253 48.8815 7.92127 48.9622 7.83876C49.0429 7.75625 49.0833 7.64624 49.0833 7.52248V6.3811C49.0833 6.24358 49.0429 6.13357 48.9622 6.05106C48.8815 5.96855 48.7739 5.9273 48.6394 5.9273H43.1917V2.73694H49.0295C49.164 2.73694 49.2716 2.69569 49.3523 2.61318C49.433 2.53067 49.4734 2.43441 49.4734 2.29689V1.073C49.4734 0.935487 49.433 0.825475 49.3523 0.742966C49.2716 0.660456 49.164 0.619202 49.0295 0.619202H41.174C41.0395 0.619202 40.9319 0.660456 40.8647 0.742966C40.7974 0.825475 40.7436 0.935487 40.7436 1.073V12.9268C40.7436 13.0506 40.7839 13.1469 40.8647 13.2294C40.9454 13.3119 41.053 13.3531 41.1606 13.3531H49.164C49.2985 13.3531 49.4061 13.3119 49.4868 13.2294C49.5675 13.1469 49.6079 13.0506 49.6079 12.9131V11.6754C49.6079 11.5379 49.5675 11.4417 49.4868 11.3592C49.4196 11.2904 49.312 11.2629 49.1775 11.2629ZM64.1486 0.619202H62.7228C62.4941 0.619202 62.3192 0.729214 62.1847 0.96299L58.7547 7.48122L55.3112 0.96299C55.1767 0.729214 55.0018 0.619202 54.7731 0.619202H53.3339C53.1994 0.619202 53.0917 0.660456 53.0245 0.742966C52.9572 0.825475 52.9034 0.935487 52.9034 1.073V12.9268C52.9034 13.0506 52.9438 13.1469 53.0245 13.2294C53.1052 13.3119 53.2128 13.3531 53.3204 13.3531H54.8538C54.9884 13.3531 55.0825 13.3119 55.1632 13.2294C55.2439 13.1469 55.2843 13.0368 55.2843 12.9268V5.10221L57.7593 9.91525C57.9207 10.1765 58.1225 10.314 58.3646 10.314H59.1179C59.3734 10.314 59.5752 10.1765 59.7097 9.91525L62.1847 5.10221V12.9268C62.1847 13.0506 62.2251 13.1469 62.3058 13.2294C62.3865 13.3119 62.4941 13.3531 62.6017 13.3531H64.1351C64.2696 13.3531 64.3773 13.3119 64.458 13.2294C64.5387 13.1469 64.579 13.0506 64.579 12.9131V1.073C64.579 0.935487 64.5387 0.825475 64.458 0.742966C64.3907 0.660456 64.2831 0.619202 64.1486 0.619202ZM70.5782 0.619202H68.8699C68.7489 0.619202 68.6547 0.660456 68.574 0.742966C68.4933 0.825475 68.453 0.935487 68.453 1.05925V12.9268C68.453 13.0506 68.4933 13.1469 68.574 13.2294C68.6547 13.3119 68.7623 13.3531 68.8699 13.3531H70.5782C70.7127 13.3531 70.8069 13.3119 70.8876 13.2294C70.9683 13.1469 71.0087 13.0368 71.0087 12.9268V1.05925C71.0087 0.921736 70.9683 0.825475 70.8876 0.742966C70.8204 0.660456 70.7127 0.619202 70.5782 0.619202ZM83.2896 11.2629H77.3038V7.96253H82.7515C82.886 7.96253 82.9936 7.92127 83.0743 7.83876C83.1551 7.75625 83.1954 7.64624 83.1954 7.52248V6.3811C83.1954 6.24358 83.1551 6.13357 83.0743 6.05106C82.9936 5.96855 82.886 5.9273 82.7515 5.9273H77.3038V2.73694H83.1416C83.2761 2.73694 83.3837 2.69569 83.4644 2.61318C83.5451 2.53067 83.5855 2.43441 83.5855 2.29689V1.073C83.5855 0.935487 83.5451 0.825475 83.4644 0.742966C83.3837 0.660456 83.2761 0.619202 83.1416 0.619202H75.2861C75.1516 0.619202 75.044 0.660456 74.9768 0.742966C74.9095 0.825475 74.8557 0.935487 74.8557 1.073V12.9268C74.8557 13.0506 74.8961 13.1469 74.9768 13.2294C75.0575 13.3119 75.1651 13.3531 75.2727 13.3531H83.2761C83.4106 13.3531 83.5182 13.3119 83.5989 13.2294C83.6796 13.1469 83.72 13.0506 83.72 12.9131V11.6754C83.72 11.5379 83.6796 11.4417 83.5989 11.3592C83.5317 11.2904 83.4241 11.2629 83.2896 11.2629ZM96.9559 12.7893L94.3733 8.1413C95.1266 7.88002 95.705 7.43997 96.122 6.8349C96.5389 6.22983 96.7407 5.48725 96.7407 4.60715C96.7407 3.32826 96.3237 2.3519 95.5032 1.65057C94.6827 0.96299 93.5393 0.619202 92.0732 0.619202H87.4594C87.3249 0.619202 87.2173 0.660456 87.1501 0.742966C87.0828 0.825475 87.029 0.935487 87.029 1.073V12.9268C87.029 13.0506 87.0693 13.1469 87.1501 13.2294C87.2308 13.3119 87.3384 13.3531 87.446 13.3531H89.087C89.2215 13.3531 89.3291 13.3119 89.4098 13.2294C89.4905 13.1469 89.5309 13.0368 89.5309 12.9268V8.5676H91.9656L94.2523 12.8856C94.333 13.0368 94.4271 13.1469 94.5347 13.2431C94.6423 13.3394 94.7903 13.3806 94.9786 13.3806H96.6197C96.7138 13.3806 96.7945 13.3394 96.8752 13.2706C96.9559 13.2019 96.9963 13.1056 96.9963 12.9956C97.0097 12.9268 96.9828 12.8581 96.9559 12.7893ZM93.62 6.00981C93.2569 6.32609 92.7323 6.49111 92.0194 6.49111H89.5444V2.66818H92.0194C92.7323 2.66818 93.2703 2.8332 93.62 3.16324C93.9832 3.49327 94.1581 3.97458 94.1581 4.5934C94.1581 5.21222 93.9698 5.67977 93.62 6.00981Z" fill="#F7F9FF"/>
<path d="M10.9223 6.83496C10.8685 6.69744 10.7609 6.57368 10.5861 6.47742L0.887775 0.743023C0.403534 0.45424 0 0.688017 0 1.26558V12.7206C0 13.2982 0.403534 13.5457 0.887775 13.2432L10.5861 7.52253C10.7609 7.41252 10.8685 7.28876 10.9223 7.16499C10.9358 7.10999 10.9492 7.05498 10.9492 6.99998C10.9627 6.94497 10.9492 6.88996 10.9223 6.83496Z" fill="#F7F9FF"/>
<path opacity="0.5" d="M10.9223 6.83496C10.8685 6.69744 10.7609 6.57368 10.5861 6.47742L0.887775 0.743023C0.403534 0.45424 0 0.688017 0 1.26558V3.60334V6.98622V10.3829L10.9223 7.15124C10.9358 7.09624 10.9492 7.04123 10.9492 6.98622C10.9627 6.94497 10.9492 6.88996 10.9223 6.83496Z" fill="#F7F9FF"/>
<path d="M10.9223 6.83496C10.8685 6.69744 10.7609 6.57368 10.5861 6.47742L0.887775 0.743023C0.403534 0.45424 0 0.688017 0 1.26558V3.60334V6.98622H10.9627C10.9627 6.94497 10.9492 6.88996 10.9223 6.83496Z" fill="#F7F9FF"/>
<path d="M0 3.60334L10.9223 6.83496C10.8685 6.69744 10.7609 6.57368 10.5861 6.47742L0.901227 0.743023C0.416986 0.45424 0.0134509 0.688017 0.0134509 1.26558L0 3.60334Z" fill="#F7F9FF"/>
</svg>
