<svg width="180" height="56" viewBox="0 0 180 56" fill="none" xmlns="http://www.w3.org/2000/svg">
<rect width="180" height="56" rx="12" fill="#0D143B"/>
<path fill-rule="evenodd" clip-rule="evenodd" d="M39.6835 41C34.1758 41 31.422 41 29.7109 39.3129C28 37.6259 28 34.9106 28 29.48V28.52C28 23.0894 28 20.3741 29.7109 18.687C31.422 17 34.1758 17 39.6835 17H40.6571C46.1648 17 48.9186 17 50.6296 18.687C52.3406 20.3741 52.3406 23.0894 52.3406 28.52V29.48C52.3406 34.9106 52.3406 37.6259 50.6296 39.3129C48.9186 41 46.1648 41 40.6571 41H39.6835ZM45.1468 32.5469L46.7915 32.952C47.5363 33.1356 48.2584 32.5829 48.2584 31.8294V24.0136C48.2584 23.3502 47.7986 22.7717 47.1428 22.6103L42.4257 21.4483C41.6808 21.2649 40.9587 21.8175 40.9587 22.5711V23.98L37.9865 23.2479C37.2417 23.0645 36.5196 23.6171 36.5196 24.3706V25.7795L33.5473 25.0475C32.8024 24.864 32.0803 25.4166 32.0803 26.1701V33.9859C32.0803 34.6493 32.5401 35.2277 33.1959 35.3893L37.913 36.5511C38.6579 36.7346 39.3801 36.182 39.3801 35.4284V34.129L39.3791 34.1288L39.3803 27.6241C39.3803 26.9648 38.958 26.5825 38.8044 26.4653C38.7752 26.443 38.7671 26.4013 38.7881 26.3713C38.8087 26.3417 38.846 26.3277 38.8809 26.3381C39.5024 26.5231 40.0971 27.1514 40.1565 27.9414L40.3617 33.9103C40.3684 34.1064 40.4971 34.2764 40.6822 34.3403L42.3523 34.7516C43.0972 34.9351 43.8193 34.3825 43.8193 33.6289L43.8205 25.8254C43.8205 25.166 43.3981 24.7837 43.2446 24.6666C43.2154 24.6442 43.2073 24.6026 43.2282 24.5725C43.2489 24.5429 43.2862 24.5289 43.3211 24.5393C43.9425 24.7243 44.5373 25.3526 44.5966 26.1426L44.8019 32.111C44.8089 32.3153 44.9488 32.491 45.1468 32.5469Z" fill="#F7F9FF"/>
<path d="M74 42H71.4256L67.3404 36.2979H65.1915V42H63V27H68.2766C69.2979 27 70.2128 27.1986 71.0213 27.5957C71.8298 27.9929 72.4539 28.5461 72.8936 29.2553C73.3475 29.9504 73.5745 30.7518 73.5745 31.6596C73.5745 32.7944 73.227 33.766 72.5319 34.5745C71.8369 35.3688 70.9078 35.8936 69.7447 36.149L74 42ZM65.1915 29.0213V34.2979H68.2766C69.1844 34.2979 69.915 34.0567 70.4681 33.5745C71.0355 33.078 71.3192 32.4397 71.3192 31.6596C71.3192 30.8794 71.0355 30.2482 70.4681 29.766C69.915 29.2696 69.1844 29.0213 68.2766 29.0213H65.1915Z" fill="#F7F9FF"/>
<path d="M80.3864 42C79.553 42 78.803 41.8121 78.1364 41.4364C77.4697 41.0468 76.9469 40.518 76.5681 39.8501C76.1893 39.1683 76 38.4029 76 37.554V31H78.2273V37.3871C78.2273 38.2081 78.4772 38.8761 78.9772 39.3909C79.4773 39.9058 80.1212 40.1632 80.909 40.1632C81.7273 40.1632 82.409 39.8988 82.9545 39.37C83.4999 38.8412 83.7727 38.1803 83.7727 37.3871V31H86V41.7912H84.409L83.8863 40.1632C83.5076 40.7477 83.0075 41.1999 82.3863 41.5199C81.7802 41.8399 81.1136 42 80.3864 42Z" fill="#F7F9FF"/>
<path d="M93.7941 42C92.3855 42 91.1584 41.6552 90.1129 40.9655C89.0819 40.2621 88.3776 39.3104 88 38.1103L90.1564 37.7793C90.5776 38.5517 91.0786 39.1241 91.6594 39.4965C92.2403 39.8552 92.9518 40.0345 93.7941 40.0345C94.6508 40.0345 95.3478 39.8552 95.8852 39.4965C96.4224 39.1241 96.691 38.6207 96.691 37.9862C96.691 37.5172 96.5386 37.1241 96.2336 36.8069C95.9432 36.4897 95.5729 36.2345 95.1228 36.0414C94.6726 35.8482 94.0845 35.6344 93.3584 35.4C92.3855 35.0965 91.5868 34.793 90.9624 34.4896C90.338 34.1862 89.8079 33.7586 89.3723 33.2069C88.9512 32.6413 88.7406 31.9242 88.7406 31.0552C88.7406 30.2414 88.9512 29.531 89.3723 28.9241C89.8079 28.3035 90.4033 27.8276 91.1584 27.4965C91.9136 27.1654 92.7558 27 93.6852 27C94.9775 27 96.0884 27.3241 97.0178 27.9724C97.9471 28.6068 98.6079 29.4827 99 30.6L96.8871 30.931C96.5967 30.2965 96.1829 29.8137 95.6455 29.4827C95.1082 29.1379 94.4766 28.9655 93.7505 28.9655C92.9663 28.9655 92.3202 29.1448 91.8119 29.5034C91.3036 29.8483 91.0495 30.3241 91.0495 30.931C91.0495 31.3862 91.1947 31.7724 91.4852 32.0896C91.7901 32.4069 92.1604 32.662 92.5961 32.8551C93.0462 33.0482 93.6416 33.2689 94.3821 33.5173C95.326 33.8207 96.1102 34.131 96.7346 34.4482C97.3735 34.7517 97.9108 35.1862 98.3465 35.7517C98.7821 36.3173 99 37.0276 99 37.8827C99 38.7104 98.7676 39.4345 98.3029 40.0551C97.8528 40.6758 97.2284 41.1586 96.4297 41.5034C95.6455 41.8345 94.767 42 93.7941 42Z" fill="#F7F9FF"/>
<path d="M107 40.195L106.822 42H105.023C103.954 42 103.144 41.7202 102.591 41.1604C102.037 40.6007 101.759 39.7961 101.759 38.7467V32.9745H100V31.1484H101.759L102.294 28H103.697V31.1484H106.822V32.9745H103.697V38.7467C103.697 39.7122 104.139 40.195 105.023 40.195H107Z" fill="#F7F9FF"/>
<path d="M114.001 42C112.842 42 111.81 41.7678 110.901 41.3035C109.993 40.8392 109.283 40.1905 108.769 39.3575C108.257 38.5246 108 37.5754 108 36.5102C108 35.4451 108.257 34.4959 108.769 33.6629C109.283 32.8299 109.993 32.1812 110.901 31.7169C111.81 31.239 112.842 31 114.001 31C115.158 31 116.19 31.239 117.098 31.7169C118.008 32.1812 118.717 32.8299 119.231 33.6629C119.743 34.4959 120 35.4451 120 36.5102C120 37.5754 119.743 38.5246 119.231 39.3575C118.717 40.1905 118.008 40.8392 117.098 41.3035C116.19 41.7678 115.158 42 114.001 42ZM114.001 40.1564C115.114 40.1564 116.014 39.8219 116.704 39.1527C117.407 38.4836 117.759 37.6027 117.759 36.5102C117.759 35.4178 117.407 34.5369 116.704 33.8678C116.014 33.1849 115.114 32.8436 114.001 32.8436C112.886 32.8436 111.986 33.1849 111.297 33.8678C110.608 34.5369 110.264 35.4178 110.264 36.5102C110.264 37.589 110.608 38.4699 111.297 39.1527C111.986 39.8219 112.886 40.1564 114.001 40.1564Z" fill="#F7F9FF"/>
<path d="M122 42V31H123.626L124.107 32.5745C124.458 32.0213 124.894 31.6241 125.412 31.383C125.931 31.1276 126.55 31 127.267 31H127.817L128 33H126.717C125.894 33 125.275 33.2199 124.863 33.6596C124.451 34.0993 124.244 34.6951 124.244 35.4468V42H122Z" fill="#F7F9FF"/>
<path d="M140 36.4283C140 36.7014 139.993 36.9131 139.978 37.0633H130.309C130.43 38.0056 130.838 38.7566 131.532 39.3166C132.226 39.8765 133.11 40.1564 134.181 40.1564C134.921 40.1564 135.577 40.0266 136.151 39.7673C136.739 39.4941 137.185 39.139 137.487 38.702L139.57 39.0093C139.117 39.9652 138.385 40.7027 137.373 41.2216C136.378 41.7405 135.268 42 134.046 42C132.884 42 131.842 41.7678 130.921 41.3035C130.001 40.8256 129.283 40.17 128.77 39.3371C128.256 38.5041 128 37.5617 128 36.5102C128 35.4451 128.256 34.4959 128.77 33.6629C129.283 32.8299 129.992 32.1812 130.898 31.7169C131.804 31.239 132.837 31 134.001 31C135.148 31 136.173 31.239 137.079 31.7169C138.001 32.1812 138.717 32.8299 139.231 33.6629C139.744 34.4823 140 35.4041 140 36.4283ZM134.001 32.7821C133.11 32.7821 132.34 33.0211 131.69 33.499C131.056 33.977 130.634 34.6188 130.422 35.4246H137.578C137.381 34.6325 136.959 33.9975 136.31 33.5195C135.675 33.028 134.906 32.7821 134.001 32.7821Z" fill="#F7F9FF"/>
<path opacity="0.4" d="M69.504 8.828C69.632 8.596 69.808 8.48 70.032 8.48C70.184 8.48 70.316 8.532 70.428 8.636C70.548 8.74 70.608 8.872 70.608 9.032C70.608 9.136 70.58 9.24 70.524 9.344L66.768 16.7C66.64 16.94 66.46 17.06 66.228 17.06C66.076 17.06 65.94 17.008 65.82 16.904C65.708 16.792 65.652 16.656 65.652 16.496C65.652 16.408 65.676 16.312 65.724 16.208L66.624 14.456L63.48 9.368C63.408 9.248 63.372 9.132 63.372 9.02C63.372 8.868 63.428 8.74 63.54 8.636C63.66 8.524 63.792 8.468 63.936 8.468C64.144 8.468 64.312 8.572 64.44 8.78L67.224 13.292L69.504 8.828ZM73.5902 17.084C73.0222 17.084 72.5222 16.96 72.0902 16.712C71.6662 16.464 71.3342 16.112 71.0942 15.656C70.8622 15.2 70.7462 14.672 70.7462 14.072C70.7462 13.464 70.8662 12.928 71.1062 12.464C71.3542 12 71.6982 11.64 72.1382 11.384C72.5782 11.128 73.0822 11 73.6502 11C73.9542 11 74.2582 11.044 74.5622 11.132C74.8742 11.22 75.1502 11.34 75.3902 11.492C75.6462 11.668 75.7742 11.872 75.7742 12.104C75.7742 12.24 75.7382 12.356 75.6662 12.452C75.5942 12.54 75.5022 12.584 75.3902 12.584C75.3182 12.584 75.2462 12.568 75.1742 12.536C75.1022 12.496 75.0102 12.44 74.8982 12.368C74.6982 12.24 74.5102 12.144 74.3342 12.08C74.1662 12.008 73.9622 11.972 73.7222 11.972C73.1782 11.972 72.7542 12.156 72.4502 12.524C72.1542 12.892 72.0062 13.404 72.0062 14.06C72.0062 14.716 72.1542 15.224 72.4502 15.584C72.7462 15.936 73.1662 16.112 73.7102 16.112C73.9502 16.112 74.1622 16.076 74.3462 16.004C74.5302 15.932 74.7182 15.836 74.9102 15.716C74.9982 15.66 75.0862 15.612 75.1742 15.572C75.2622 15.532 75.3422 15.512 75.4142 15.512C75.5262 15.512 75.6182 15.56 75.6902 15.656C75.7622 15.744 75.7982 15.856 75.7982 15.992C75.7982 16.104 75.7662 16.208 75.7022 16.304C75.6462 16.392 75.5462 16.484 75.4022 16.58C75.1622 16.74 74.8822 16.864 74.5622 16.952C74.2422 17.04 73.9182 17.084 73.5902 17.084ZM78.815 17.06C78.631 17.06 78.483 17.008 78.371 16.904C78.259 16.8 78.203 16.66 78.203 16.484V12.08H76.643C76.499 12.08 76.383 12.036 76.295 11.948C76.207 11.86 76.163 11.748 76.163 11.612C76.163 11.476 76.207 11.364 76.295 11.276C76.383 11.188 76.499 11.144 76.643 11.144H80.975C81.127 11.144 81.247 11.188 81.335 11.276C81.423 11.364 81.467 11.476 81.467 11.612C81.467 11.748 81.423 11.86 81.335 11.948C81.247 12.036 81.127 12.08 80.975 12.08H79.415V16.484C79.415 16.66 79.359 16.8 79.247 16.904C79.143 17.008 78.999 17.06 78.815 17.06ZM84.8156 11C85.5916 11 86.1676 11.196 86.5436 11.588C86.9276 11.98 87.1196 12.576 87.1196 13.376V16.484C87.1196 16.668 87.0676 16.812 86.9636 16.916C86.8596 17.012 86.7156 17.06 86.5316 17.06C86.3556 17.06 86.2156 17.008 86.1116 16.904C86.0076 16.8 85.9556 16.66 85.9556 16.484V16.04C85.8036 16.376 85.5756 16.636 85.2716 16.82C84.9756 16.996 84.6276 17.084 84.2276 17.084C83.8436 17.084 83.4916 17.008 83.1716 16.856C82.8596 16.696 82.6116 16.48 82.4276 16.208C82.2436 15.936 82.1516 15.628 82.1516 15.284C82.1436 14.852 82.2516 14.516 82.4756 14.276C82.6996 14.028 83.0636 13.852 83.5676 13.748C84.0716 13.636 84.7716 13.58 85.6676 13.58H85.9436V13.232C85.9436 12.784 85.8516 12.46 85.6676 12.26C85.4836 12.06 85.1876 11.96 84.7796 11.96C84.4996 11.96 84.2356 11.996 83.9876 12.068C83.7396 12.14 83.4676 12.244 83.1716 12.38C82.9556 12.5 82.8036 12.56 82.7156 12.56C82.5956 12.56 82.4956 12.516 82.4156 12.428C82.3436 12.34 82.3076 12.228 82.3076 12.092C82.3076 11.972 82.3396 11.868 82.4036 11.78C82.4756 11.684 82.5876 11.592 82.7396 11.504C83.0196 11.352 83.3476 11.232 83.7236 11.144C84.0996 11.048 84.4636 11 84.8156 11ZM84.4436 16.184C84.8836 16.184 85.2436 16.036 85.5236 15.74C85.8036 15.436 85.9436 15.048 85.9436 14.576V14.264H85.7276C85.1036 14.264 84.6236 14.292 84.2876 14.348C83.9516 14.404 83.7116 14.5 83.5676 14.636C83.4236 14.764 83.3516 14.952 83.3516 15.2C83.3516 15.488 83.4556 15.724 83.6636 15.908C83.8716 16.092 84.1316 16.184 84.4436 16.184ZM89.3655 17.06C89.1815 17.06 89.0335 17.008 88.9215 16.904C88.8095 16.8 88.7535 16.66 88.7535 16.484V11.6C88.7535 11.424 88.8095 11.284 88.9215 11.18C89.0335 11.076 89.1815 11.024 89.3655 11.024C89.5495 11.024 89.6935 11.076 89.7975 11.18C89.9095 11.284 89.9655 11.424 89.9655 11.6V13.52H92.8455V11.6C92.8455 11.424 92.9015 11.284 93.0135 11.18C93.1255 11.076 93.2735 11.024 93.4575 11.024C93.6415 11.024 93.7855 11.076 93.8895 11.18C94.0015 11.284 94.0575 11.424 94.0575 11.6L94.0695 16.448C94.0695 16.632 94.0135 16.78 93.9015 16.892C93.7895 17.004 93.6415 17.06 93.4575 17.06C93.2735 17.06 93.1255 17.004 93.0135 16.892C92.9015 16.78 92.8455 16.632 92.8455 16.448V14.48H89.9655V16.484C89.9655 16.66 89.9095 16.8 89.7975 16.904C89.6935 17.008 89.5495 17.06 89.3655 17.06ZM98.2707 17.084C97.6947 17.084 97.1867 16.96 96.7467 16.712C96.3147 16.464 95.9787 16.112 95.7387 15.656C95.5067 15.192 95.3907 14.656 95.3907 14.048C95.3907 13.432 95.5067 12.896 95.7387 12.44C95.9787 11.976 96.3147 11.62 96.7467 11.372C97.1867 11.124 97.6947 11 98.2707 11C98.8467 11 99.3507 11.124 99.7827 11.372C100.223 11.62 100.559 11.976 100.791 12.44C101.031 12.896 101.151 13.432 101.151 14.048C101.151 14.656 101.031 15.192 100.791 15.656C100.559 16.112 100.223 16.464 99.7827 16.712C99.3507 16.96 98.8467 17.084 98.2707 17.084ZM98.2707 16.124C98.8067 16.124 99.2147 15.948 99.4947 15.596C99.7827 15.244 99.9267 14.728 99.9267 14.048C99.9267 13.376 99.7827 12.864 99.4947 12.512C99.2067 12.152 98.7987 11.972 98.2707 11.972C97.7427 11.972 97.3347 12.152 97.0467 12.512C96.7587 12.864 96.6147 13.376 96.6147 14.048C96.6147 14.728 96.7547 15.244 97.0347 15.596C97.3227 15.948 97.7347 16.124 98.2707 16.124ZM103.1 17C102.908 17 102.756 16.948 102.644 16.844C102.532 16.74 102.476 16.596 102.476 16.412V11.768C102.476 11.584 102.528 11.436 102.632 11.324C102.744 11.204 102.888 11.144 103.064 11.144H105.212C105.86 11.144 106.364 11.272 106.724 11.528C107.092 11.784 107.276 12.156 107.276 12.644C107.276 12.932 107.192 13.2 107.024 13.448C106.856 13.696 106.6 13.876 106.256 13.988C106.624 14.06 106.912 14.216 107.12 14.456C107.328 14.688 107.432 14.988 107.432 15.356C107.432 15.644 107.352 15.916 107.192 16.172C107.032 16.42 106.788 16.62 106.46 16.772C106.132 16.924 105.728 17 105.248 17H103.1ZM105.056 13.616C105.368 13.616 105.616 13.54 105.8 13.388C105.984 13.236 106.076 13.028 106.076 12.764C106.076 12.252 105.724 11.996 105.02 11.996H103.688V13.616H105.056ZM105.08 16.148C105.832 16.148 106.208 15.864 106.208 15.296C106.208 15 106.104 14.78 105.896 14.636C105.688 14.492 105.4 14.42 105.032 14.42H103.688V16.148H105.08ZM112.766 11.456C112.878 11.296 112.986 11.184 113.09 11.12C113.194 11.056 113.334 11.024 113.51 11.024C113.702 11.024 113.854 11.08 113.966 11.192C114.078 11.296 114.134 11.44 114.134 11.624V16.472C114.134 16.648 114.082 16.792 113.978 16.904C113.874 17.008 113.734 17.06 113.558 17.06C113.39 17.06 113.25 17.008 113.138 16.904C113.034 16.792 112.982 16.648 112.982 16.472V12.656L110.102 16.652C109.99 16.812 109.878 16.92 109.766 16.976C109.662 17.032 109.53 17.06 109.37 17.06C109.186 17.06 109.034 17.008 108.914 16.904C108.802 16.792 108.746 16.648 108.746 16.472V11.612C108.746 11.444 108.798 11.304 108.902 11.192C109.014 11.08 109.158 11.024 109.334 11.024C109.502 11.024 109.638 11.08 109.742 11.192C109.854 11.304 109.91 11.444 109.91 11.612V15.392L112.766 11.456ZM117.733 17.06C117.549 17.06 117.401 17.008 117.289 16.904C117.177 16.8 117.121 16.66 117.121 16.484V12.08H115.561C115.417 12.08 115.301 12.036 115.213 11.948C115.125 11.86 115.081 11.748 115.081 11.612C115.081 11.476 115.125 11.364 115.213 11.276C115.301 11.188 115.417 11.144 115.561 11.144H119.893C120.045 11.144 120.165 11.188 120.253 11.276C120.341 11.364 120.385 11.476 120.385 11.612C120.385 11.748 120.341 11.86 120.253 11.948C120.165 12.036 120.045 12.08 119.893 12.08H118.333V16.484C118.333 16.66 118.277 16.8 118.165 16.904C118.061 17.008 117.917 17.06 117.733 17.06ZM125.858 15.524C125.97 15.524 126.062 15.568 126.134 15.656C126.206 15.744 126.242 15.856 126.242 15.992C126.242 16.224 126.098 16.42 125.81 16.58C125.53 16.74 125.222 16.864 124.886 16.952C124.558 17.04 124.242 17.084 123.938 17.084C123.01 17.084 122.278 16.816 121.742 16.28C121.206 15.736 120.938 14.996 120.938 14.06C120.938 13.46 121.054 12.928 121.286 12.464C121.526 12 121.858 11.64 122.282 11.384C122.714 11.128 123.202 11 123.746 11C124.53 11 125.15 11.252 125.606 11.756C126.062 12.26 126.29 12.94 126.29 13.796C126.29 14.116 126.146 14.276 125.858 14.276H122.15C122.23 15.516 122.826 16.136 123.938 16.136C124.234 16.136 124.49 16.096 124.706 16.016C124.922 15.936 125.15 15.832 125.39 15.704C125.414 15.688 125.478 15.656 125.582 15.608C125.694 15.552 125.786 15.524 125.858 15.524ZM123.77 11.888C123.306 11.888 122.934 12.036 122.654 12.332C122.374 12.628 122.206 13.044 122.15 13.58H125.246C125.222 13.036 125.082 12.62 124.826 12.332C124.578 12.036 124.226 11.888 123.77 11.888ZM134.785 11.456C134.897 11.296 135.005 11.184 135.109 11.12C135.213 11.056 135.353 11.024 135.529 11.024C135.721 11.024 135.873 11.08 135.985 11.192C136.097 11.296 136.153 11.44 136.153 11.624V16.472C136.153 16.648 136.101 16.792 135.997 16.904C135.893 17.008 135.753 17.06 135.577 17.06C135.409 17.06 135.269 17.008 135.157 16.904C135.053 16.792 135.001 16.648 135.001 16.472V12.656L132.121 16.652C132.009 16.812 131.897 16.92 131.785 16.976C131.681 17.032 131.549 17.06 131.389 17.06C131.205 17.06 131.053 17.008 130.933 16.904C130.821 16.792 130.765 16.648 130.765 16.472V11.612C130.765 11.444 130.817 11.304 130.921 11.192C131.033 11.08 131.177 11.024 131.353 11.024C131.521 11.024 131.657 11.08 131.761 11.192C131.873 11.304 131.929 11.444 131.929 11.612V15.392L134.785 11.456ZM139.716 17.084C138.9 17.084 138.204 16.912 137.628 16.568C137.42 16.456 137.316 16.3 137.316 16.1C137.316 15.98 137.36 15.88 137.448 15.8C137.536 15.712 137.648 15.668 137.784 15.668C137.88 15.668 137.976 15.692 138.072 15.74C138.32 15.876 138.564 15.976 138.804 16.04C139.052 16.104 139.324 16.136 139.62 16.136C140.012 16.136 140.352 16.06 140.64 15.908C140.928 15.756 141.072 15.524 141.072 15.212C141.072 14.7 140.708 14.444 139.98 14.444H139.128C138.992 14.444 138.88 14.404 138.792 14.324C138.712 14.236 138.672 14.124 138.672 13.988C138.672 13.86 138.716 13.756 138.804 13.676C138.892 13.588 139 13.544 139.128 13.544H139.908C140.244 13.544 140.5 13.472 140.676 13.328C140.86 13.176 140.952 12.98 140.952 12.74C140.952 12.492 140.848 12.304 140.64 12.176C140.432 12.04 140.136 11.972 139.752 11.972C139.44 11.972 139.164 12.004 138.924 12.068C138.692 12.132 138.456 12.228 138.216 12.356C138.12 12.396 138.032 12.416 137.952 12.416C137.824 12.416 137.712 12.372 137.616 12.284C137.528 12.196 137.484 12.096 137.484 11.984C137.484 11.784 137.592 11.632 137.808 11.528C138.44 11.176 139.16 11 139.968 11C140.712 11 141.272 11.144 141.648 11.432C142.032 11.72 142.224 12.104 142.224 12.584C142.224 12.88 142.132 13.152 141.948 13.4C141.764 13.648 141.508 13.828 141.18 13.94C141.948 14.108 142.332 14.56 142.332 15.296C142.332 15.656 142.216 15.972 141.984 16.244C141.752 16.516 141.436 16.724 141.036 16.868C140.636 17.012 140.196 17.084 139.716 17.084Z" fill="#F7F9FF"/>
</svg>
