<svg width="32" height="32" viewBox="0 0 32 32" fill="none" xmlns="http://www.w3.org/2000/svg">
<path fill-rule="evenodd" clip-rule="evenodd" d="M5.67764 14.1593C12.1027 11.36 16.387 9.51454 18.5307 8.6229C24.6514 6.07711 25.9232 5.63488 26.7522 5.62027C26.9345 5.61706 27.3421 5.66225 27.6062 5.87651C27.8292 6.05744 27.8905 6.30184 27.9199 6.47338C27.9492 6.64491 27.9858 7.03568 27.9567 7.34101C27.625 10.826 26.1899 19.2832 25.4597 23.1864C25.1508 24.8381 24.5424 25.3918 23.9535 25.446C22.6736 25.5638 21.7017 24.6002 20.4621 23.7876C18.5223 22.5161 17.4265 21.7245 15.5436 20.4837C13.3676 19.0497 14.7782 18.2616 16.0183 16.9736C16.3428 16.6365 21.982 11.5072 22.0912 11.0419C22.1048 10.9837 22.1175 10.7668 21.9886 10.6522C21.8598 10.5377 21.6696 10.5769 21.5323 10.608C21.3378 10.6522 18.2389 12.7004 12.2358 16.7527C11.3562 17.3567 10.5595 17.6509 9.84571 17.6355C9.05878 17.6185 7.54504 17.1906 6.41973 16.8248C5.03949 16.3761 3.9425 16.1389 4.03803 15.3769C4.08778 14.9801 4.63432 14.5742 5.67764 14.1593Z" fill="#F7F9FF"/>
</svg>
