<svg width="32" height="32" viewBox="0 0 32 32" fill="none" xmlns="http://www.w3.org/2000/svg">
<path d="M25.2119 6.77838C22.7678 4.34316 19.5174 3.00137 16.0543 3C8.9188 3 3.1114 8.77921 3.10855 15.8828C3.10763 18.1535 3.70374 20.37 4.83658 22.3237L3 29L9.86269 27.2084C11.7536 28.2348 13.8824 28.7757 16.0491 28.7766H16.0544C23.1892 28.7766 28.9971 22.9967 29 15.893C29.0014 12.4506 27.6561 9.21359 25.2119 6.77838ZM16.0544 26.6007H16.05C14.1193 26.6 12.2256 26.0838 10.5736 25.1081L10.1806 24.876L6.10819 25.9392L7.19521 21.9877L6.9393 21.5825C5.86223 19.8776 5.29337 17.9069 5.29421 15.8836C5.29654 9.97946 10.1235 5.17596 16.0586 5.17596C18.9325 5.17705 21.6341 6.2924 23.6656 8.31643C25.6971 10.3405 26.8153 13.031 26.8142 15.8922C26.8119 21.7969 21.985 26.6007 16.0544 26.6007ZM21.9565 18.5807C21.6329 18.4196 20.0427 17.6408 19.7461 17.5333C19.4497 17.4259 19.234 17.3722 19.0183 17.6945C18.8028 18.0167 18.1828 18.7419 17.9941 18.9567C17.8054 19.1715 17.6167 19.1984 17.2933 19.0373C16.9698 18.8761 15.9276 18.5362 14.692 17.4395C13.7305 16.586 13.0813 15.5317 12.8926 15.2094C12.7039 14.8871 12.8725 14.7129 13.0344 14.5524C13.1799 14.4082 13.3579 14.1764 13.5196 13.9884C13.6814 13.8005 13.7353 13.6661 13.8431 13.4513C13.9509 13.2364 13.897 13.0484 13.8161 12.8873C13.7353 12.7262 13.0883 11.1417 12.8188 10.4971C12.5563 9.86939 12.2895 9.95433 12.091 9.94447C11.9025 9.93513 11.6867 9.93316 11.471 9.93316C11.2554 9.93316 10.905 10.0137 10.6085 10.336C10.312 10.6583 9.47638 11.4371 9.47638 13.0216C9.47638 14.6061 10.6354 16.1369 10.7972 16.3517C10.9589 16.5665 13.0781 19.8182 16.3229 21.2126C17.0947 21.5442 17.6972 21.7423 18.1669 21.8907C18.9418 22.1356 19.647 22.1011 20.2044 22.0182C20.8258 21.9258 22.1181 21.2395 22.3877 20.4875C22.6573 19.7355 22.6573 19.091 22.5764 18.9567C22.4955 18.8224 22.2799 18.7419 21.9565 18.5807Z" fill="#F7F9FF"/>
</svg>
